<svg xmlns="http://www.w3.org/2000/svg" xmlns:xlink="http://www.w3.org/1999/xlink" width="254" height="519" viewBox="0 0 254 519">
  <defs>
    <clipPath id="clip-path">
      <rect id="Rectangle_211" data-name="Rectangle 211" width="254" height="519" transform="translate(406 487)" fill="#fff" stroke="#707070" stroke-width="1"/>
    </clipPath>
  </defs>
  <g id="Mask_Group_1" data-name="Mask Group 1" transform="translate(-406 -487)" clip-path="url(#clip-path)">
    <path id="Path_527" data-name="Path 527" d="M715.054,501.587C738.7,465.228,684.61,387.824,645.2,349.577c-20.938-20.325-84.706-75.176-170.838-73.2-150.328,3.459-267.3,177.7-239.548,225.752,16.876,29.223,76.825-6.275,247.673-1.528C629.691,504.7,693.931,534.07,715.054,501.587Z" transform="translate(-69.914 428.302)" fill="none" stroke="#fff" stroke-miterlimit="10" stroke-width="10"/>
    <path id="Path_528" data-name="Path 528" d="M291.389,278.643a57.908,57.908,0,0,1,12.23,1.323v-2a12.23,12.23,0,1,0-24.46,0v2A57.873,57.873,0,0,1,291.389,278.643Z" transform="translate(117.297 387.349)" fill="none" stroke="#fff" stroke-miterlimit="10" stroke-width="10"/>
    <path id="Rectangle_210" data-name="Rectangle 210" d="M0,0H28.317a0,0,0,0,1,0,0V18.317a10,10,0,0,1-10,10H10a10,10,0,0,1-10-10V0A0,0,0,0,1,0,0Z" transform="translate(391.931 827.891)" fill="none" stroke="#fff" stroke-miterlimit="10" stroke-width="10"/>
    <g id="Group_88" data-name="Group 88" transform="translate(279.57 700.727)">
      <path id="Path_529" data-name="Path 529" d="M285.922,275.526" transform="translate(-136.136 -275.526)" fill="none" stroke="#fff" stroke-miterlimit="10" stroke-width="10"/>
      <ellipse id="Ellipse_185" data-name="Ellipse 185" cx="22.384" cy="22.384" rx="22.384" ry="22.384" transform="translate(0 74.56)" fill="none" stroke="#fff" stroke-miterlimit="10" stroke-width="10"/>
      <ellipse id="Ellipse_186" data-name="Ellipse 186" cx="22.384" cy="22.384" rx="22.384" ry="22.384" transform="translate(212.599 74.56)" fill="none" stroke="#fff" stroke-miterlimit="10" stroke-width="10"/>
      <line id="Line_102" data-name="Line 102" transform="translate(191.014 127.163)" fill="none" stroke="#fff" stroke-miterlimit="10" stroke-width="10"/>
      <line id="Line_103" data-name="Line 103" x1="130.364" transform="translate(60.65 127.163)" fill="none" stroke="#fff" stroke-miterlimit="10" stroke-width="10"/>
      <path id="Path_530" data-name="Path 530" d="M266.914,300.129" transform="translate(-209.598 -180.44)" fill="none" stroke="#fff" stroke-miterlimit="10" stroke-width="10"/>
    </g>
    <path id="Path_531" data-name="Path 531" d="M266.959,300.906a3.592,3.592,0,0,1,0,7.117" transform="translate(70.146 523.29)" fill="none" stroke="#fff" stroke-linecap="round" stroke-linejoin="round" stroke-width="10"/>
    <path id="Path_532" data-name="Path 532" d="M297.493,300.906a3.593,3.593,0,0,0,0,7.117" transform="translate(176.187 523.29)" fill="none" stroke="#fff" stroke-linecap="round" stroke-linejoin="round" stroke-width="10"/>
    <path id="Path_533" data-name="Path 533" d="M307.774,306.72a200.613,200.613,0,0,1,42.246,3.571c.112-1.192.18-2.4.18-3.619a38.189,38.189,0,1,0-76.378,0c0,1.279.068,2.549.19,3.8A203.293,203.293,0,0,1,307.774,306.72Z" transform="translate(96.674 397.962)" fill="none" stroke="#fff" stroke-miterlimit="10" stroke-width="10"/>
  </g>
</svg>
