<svg xmlns="http://www.w3.org/2000/svg" width="75" height="75" viewBox="0 0 75 75">
  <g id="Group_96" data-name="Group 96" transform="translate(-1001.283 -244.088)">
    <g id="Group_95" data-name="Group 95" transform="translate(1001.283 244.088)">
      <path id="Path_555" data-name="Path 555" d="M1071.887,292.953V270.076a6.6,6.6,0,0,0,4.4-6.214,11,11,0,0,0-8.979-10.8,11,11,0,0,0-10.8-8.979h-35.451a11,11,0,0,0-10.8,8.979,11,11,0,0,0-8.975,10.8,6.6,6.6,0,0,0,4.393,6.214v22.877a6.591,6.591,0,0,0,0,12.427v11.51a2.2,2.2,0,0,0,2.2,2.2h61.816a2.2,2.2,0,0,0,2.2-2.2V305.38a6.589,6.589,0,0,0,0-12.427Zm-50.829-44.469h35.451a6.6,6.6,0,0,1,6.214,4.393h-47.881A6.6,6.6,0,0,1,1021.058,248.484Zm-8.788,8.788H1065.3a6.6,6.6,0,0,1,6.59,6.59,2.2,2.2,0,1,1-4.393,0,2.2,2.2,0,0,0-4.4,0,2.2,2.2,0,1,1-4.4,0,2.2,2.2,0,0,0-4.393,0,2.2,2.2,0,0,1-2.2,2.2,2.336,2.336,0,0,1-2.345-2.2,2.2,2.2,0,0,0-4.392,0,2.2,2.2,0,1,1-4.4,0,2.2,2.2,0,0,0-4.393,0,2.336,2.336,0,0,1-2.345,2.2,2.2,2.2,0,0,1-2.2-2.2,2.2,2.2,0,0,0-4.4,0,2.2,2.2,0,1,1-4.393,0,2.2,2.2,0,0,0-4.4,0,2.2,2.2,0,1,1-4.393,0,2.2,2.2,0,0,0-4.4,0,2.2,2.2,0,1,1-4.4,0A6.6,6.6,0,0,1,1012.269,257.272Zm2.418,35.3h-4.616v-22.5a4.208,4.208,0,0,1,6.59.38,6.579,6.579,0,0,1,8.792,0,6.574,6.574,0,0,1,8.788,0,6.76,6.76,0,0,0,4.5-1.718,6.578,6.578,0,0,0,8.865,0,6.755,6.755,0,0,0,4.5,1.718,6.574,6.574,0,0,1,8.788,0,4.211,4.211,0,0,1,6.594-.38v22.5h-52.807Zm52.807,22.119h-57.423V305.76h57.423Zm2.195-13.331h-61.816a2.2,2.2,0,0,1,0-4.4h61.816a2.2,2.2,0,0,1,0,4.4Z" transform="translate(-1001.283 -244.088)" fill="#fff"/>
    </g>
  </g>
</svg>
