<svg xmlns="http://www.w3.org/2000/svg" width="73.974" height="84" viewBox="0 0 73.974 84">
  <g id="Group_98" data-name="Group 98" transform="translate(-958.004 -237.021)">
    <path id="Rectangle_215" data-name="Rectangle 215" d="M5,0h8.046a5,5,0,0,1,5,5V20.5a0,0,0,0,1,0,0H0a0,0,0,0,1,0,0V5A5,5,0,0,1,5,0Z" transform="translate(985.494 297.846)" fill="none" stroke="#fff" stroke-miterlimit="10" stroke-width="4"/>
    <path id="Path_556" data-name="Path 556" d="M1007.445,248.048h11.813a10.72,10.72,0,0,1,10.719,10.719v6H960v-6a10.717,10.717,0,0,1,10.716-10.719h11.208" transform="translate(0 17.867)" fill="none" stroke="#fff" stroke-miterlimit="10" stroke-width="4"/>
    <rect id="Rectangle_216" data-name="Rectangle 216" width="60.742" height="36.091" transform="translate(964.203 282.93)" fill="none" stroke="#fff" stroke-miterlimit="10" stroke-width="4"/>
    <g id="Group_97" data-name="Group 97" transform="translate(968.122 239.021)">
      <path id="Path_557" data-name="Path 557" d="M976.69,260.492c.116-.122.224-.235.322-.343a4.705,4.705,0,0,0,.849-1.335q1.953-4.54,4.1-9.23,2.082-4.54,4.168-8.816" transform="translate(-935.097 -235.561)" fill="none" stroke="#fff" stroke-linecap="round" stroke-linejoin="round" stroke-width="4"/>
      <path id="Path_558" data-name="Path 558" d="M976,249.308a24.848,24.848,0,0,0,2.059-1.919" transform="translate(-936.464 -222.459)" fill="none" stroke="#fff" stroke-linecap="round" stroke-linejoin="round" stroke-width="4"/>
      <path id="Path_559" data-name="Path 559" d="M967.183,247.984c.11.092.221.185.334.277" transform="translate(-953.913 -221.281)" fill="none" stroke="#fff" stroke-linecap="round" stroke-linejoin="round" stroke-width="4"/>
      <path id="Path_560" data-name="Path 560" d="M963.261,240.784q2.078,4.366,4.156,8.771,2.145,4.545,4.26,9.072a4.722,4.722,0,0,0,.739,1.141,25.146,25.146,0,0,0,2.529,2.467" transform="translate(-961.676 -235.532)" fill="none" stroke="#fff" stroke-linecap="round" stroke-linejoin="round" stroke-width="4"/>
      <path id="Path_561" data-name="Path 561" d="M980.753,256.029q-3.673-3.307-7.4-6.614-5.014-4.447-9.98-8.762" transform="translate(-961.462 -235.791)" fill="none" stroke="#fff" stroke-linecap="round" stroke-linejoin="round" stroke-width="4"/>
      <path id="Path_562" data-name="Path 562" d="M973.926,245.719" transform="translate(-940.567 -225.764)" fill="none" stroke="#fff" stroke-linecap="round" stroke-linejoin="round" stroke-width="4"/>
      <path id="Path_563" data-name="Path 563" d="M973.926,255.754q3.669-3.133,7.362-6.334,5.059-4.388,10-8.771" transform="translate(-940.567 -235.799)" fill="none" stroke="#fff" stroke-linecap="round" stroke-linejoin="round" stroke-width="4"/>
      <path id="Path_564" data-name="Path 564" d="M969.2,257.628q3.356-8.893,6.715-17.783" transform="translate(-949.913 -237.39)" fill="none" stroke="#fff" stroke-linecap="round" stroke-linejoin="round" stroke-width="4"/>
      <path id="Path_565" data-name="Path 565" d="M971.751,239.85q3.24,8.741,6.48,17.485" transform="translate(-944.872 -237.38)" fill="none" stroke="#fff" stroke-linecap="round" stroke-linejoin="round" stroke-width="4"/>
      <path id="Path_566" data-name="Path 566" d="M964.314,242.371a.885.885,0,0,1-.548.2,1.326,1.326,0,1,1,1.04-1.3,1.545,1.545,0,0,1-.17.706" transform="translate(-962.729 -237.119)" fill="none" stroke="#fff" stroke-linecap="round" stroke-linejoin="round" stroke-width="4"/>
      <path id="Path_567" data-name="Path 567" d="M972.723,241.491a1.334,1.334,0,0,0,.611-1.177,1.062,1.062,0,1,0-2.073,0,1.338,1.338,0,0,0,.59,1.162" transform="translate(-945.844 -239.021)" fill="none" stroke="#fff" stroke-linecap="round" stroke-linejoin="round" stroke-width="4"/>
      <path id="Path_568" data-name="Path 568" d="M980.194,242.362a.9.9,0,0,0,.536.191,1.326,1.326,0,1,0-1.04-1.3,1.526,1.526,0,0,0,.194.748" transform="translate(-929.159 -237.155)" fill="none" stroke="#fff" stroke-linecap="round" stroke-linejoin="round" stroke-width="4"/>
    </g>
  </g>
</svg>
