<svg xmlns="http://www.w3.org/2000/svg" width="67.161" height="71" viewBox="0 0 67.161 71">
  <g id="Group_99" data-name="Group 99" transform="translate(-907.149 -235.077)">
    <path id="Rectangle_217" data-name="Rectangle 217" d="M5,0h.915a5,5,0,0,1,5,5V17.1a0,0,0,0,1,0,0H0a0,0,0,0,1,0,0V5A5,5,0,0,1,5,0Z" transform="translate(921.574 287.481)" fill="none" stroke="#fff" stroke-miterlimit="10" stroke-width="3"/>
    <line id="Line_116" data-name="Line 116" y2="17" transform="translate(920.645 253.077)" fill="none" stroke="#fff" stroke-linecap="round" stroke-linejoin="round" stroke-width="3"/>
    <line id="Line_117" data-name="Line 117" y2="17" transform="translate(960.532 253.077)" fill="none" stroke="#fff" stroke-linecap="round" stroke-linejoin="round" stroke-width="3"/>
    <path id="Rectangle_218" data-name="Rectangle 218" d="M2.512,0h0A2.512,2.512,0,0,1,5.025,2.512V4.506a0,0,0,0,1,0,0H0a0,0,0,0,1,0,0V2.512A2.512,2.512,0,0,1,2.512,0Z" transform="translate(917.883 236.577)" fill="none" stroke="#fff" stroke-miterlimit="10" stroke-width="3"/>
    <path id="Rectangle_219" data-name="Rectangle 219" d="M2.512,0h0A2.512,2.512,0,0,1,5.025,2.512V4.506a0,0,0,0,1,0,0H0a0,0,0,0,1,0,0V2.512A2.512,2.512,0,0,1,2.512,0Z" transform="translate(958.019 236.577)" fill="none" stroke="#fff" stroke-miterlimit="10" stroke-width="3"/>
    <rect id="Rectangle_220" data-name="Rectangle 220" width="64.146" height="11.641" transform="translate(908.649 241.084)" fill="none" stroke="#fff" stroke-miterlimit="10" stroke-width="3"/>
    <path id="Rectangle_221" data-name="Rectangle 221" d="M0,0H64.146a0,0,0,0,1,0,0V4.5a5.612,5.612,0,0,1-5.612,5.612H5.612A5.612,5.612,0,0,1,0,4.5V0A0,0,0,0,1,0,0Z" transform="translate(972.811 280.562) rotate(180)" fill="none" stroke="#fff" stroke-miterlimit="10" stroke-width="3"/>
    <rect id="Rectangle_222" data-name="Rectangle 222" width="56.382" height="21.829" transform="translate(912.448 282.748)" fill="none" stroke="#fff" stroke-miterlimit="10" stroke-width="3"/>
    <rect id="Rectangle_223" data-name="Rectangle 223" width="14.144" height="8.217" transform="translate(943.482 291.02)" fill="none" stroke="#fff" stroke-miterlimit="10" stroke-width="3"/>
    <path id="Rectangle_224" data-name="Rectangle 224" d="M.3,0H16.911a.3.3,0,0,1,.3.3v.886a.809.809,0,0,1-.809.809H.809A.809.809,0,0,1,0,1.182V.3A.3.3,0,0,1,.3,0Z" transform="translate(941.951 286.192)" fill="#fff" stroke="#fff" stroke-miterlimit="10" stroke-width="3"/>
  </g>
</svg>
