<?xml version="1.0" encoding="utf-8"?>
<!-- Generator: Adobe Illustrator 23.0.1, SVG Export Plug-In . SVG Version: 6.00 Build 0)  -->
<svg version="1.1" id="customers" xmlns="http://www.w3.org/2000/svg" xmlns:xlink="http://www.w3.org/1999/xlink" x="0px" y="0px"
	 viewBox="0 0 31.1 18.9" style="enable-background:new 0 0 31.1 18.9;" xml:space="preserve">
		<style type="text/css">
			.st0{fill:#FFFFFF;}
			.st1{fill:#FFFFFF;stroke:#FFFFFF;stroke-miterlimit:10;}
			.st2{stroke:#FFFFFF;stroke-miterlimit:10;}
			.st3{fill:none;stroke:#FFFFFF;stroke-width:0.75;stroke-linecap:round;stroke-linejoin:round;}
			.st4{fill:none;stroke:#FFFFFF;stroke-width:0.5;stroke-linecap:round;stroke-linejoin:round;}
			.st5{fill:none;stroke:#FFFFFF;stroke-width:0.5;stroke-miterlimit:10;}
			.st6{fill:none;stroke:#FFFFFF;stroke-width:0.75;stroke-miterlimit:10;}
		</style>
		<g transform="translate(-769.577 -428.6)">
			<g transform="translate(784.906 439.89)">
				<path class="st0" d="M0.3,0.9L0.3,0.9c0.1,0,0.2,0.1,0.2,0.2L0.4,3.8c0,0.1,0,0.2-0.1,0.2l0,0C0.2,4,0.1,3.9,0.1,3.8l0.1-2.7
					C0.1,1,0.2,0.9,0.3,0.9z"/>
				<path class="st0" d="M2,3.6L2,3.6c0.1,0.1,0.1,0.2,0,0.3L1.2,4.7C1.1,4.8,1,4.8,1,4.7l0,0C0.9,4.6,0.9,4.5,1,4.4l0.8-0.8
					C1.8,3.6,2,3.6,2,3.6z"/>
				<path class="st0" d="M2,2.9L2,2.9c0,0,0,0.1,0,0.2L1.5,3.6c0,0-0.1,0-0.2,0l0,0c0,0,0-0.1,0-0.2l0.6-0.6C1.9,2.8,2,2.8,2,2.9z"/>
				<path class="st0" d="M0.2,3.6L0.2,3.6c0.1-0.1,0.2-0.1,0.3,0l0.8,0.8c0.1,0.1,0.1,0.2,0,0.3l0,0C1.2,4.8,1,4.8,1,4.7L0.2,3.9
					C0.1,3.8,0.1,3.7,0.2,3.6z"/>
				<path class="st0" d="M1,0.2L1,0.2c0.1-0.1,0.2-0.1,0.3,0L2.1,1c0.1,0.1,0.1,0.2,0,0.3l0,0c-0.1,0-0.2,0-0.3-0.1L1,0.4
					C0.9,0.3,0.9,0.2,1,0.2z"/>
				<path class="st0" d="M2.8,3.6L2.8,3.6c0,0,0,0.1,0,0.2L2.2,4.3c0,0-0.1,0-0.2,0l0,0c0,0,0-0.1,0-0.2l0.6-0.6
					C2.6,3.6,2.7,3.6,2.8,3.6z"/>
				<path class="st0" d="M1.2,0.2L1.2,0.2c0.1,0.1,0.1,0.2,0,0.3L0.4,1.2c-0.1,0.1-0.2,0.1-0.3,0l0,0c0,0,0-0.2,0.1-0.2L1,0.2
					C1,0.1,1.2,0.1,1.2,0.2z"/>
				<path class="st0" d="M1.6,1.6L1.6,1.6c0,0.1,0,0.1-0.1,0.1H1.1C1,1.7,1,1.7,1,1.6l0,0c0-0.1,0-0.1,0.1-0.1h0.4
					C1.6,1.5,1.6,1.6,1.6,1.6z"/>
				<path class="st0" d="M3,1.6L3,1.6c0,0.1,0,0.1-0.1,0.1H2.5c-0.1,0-0.1,0-0.1-0.1l0,0c0-0.1,0-0.1,0.1-0.1h0.4C3,1.5,3,1.6,3,1.6z"
					/>
				<circle class="st0" cx="1.3" cy="1.9" r="0.2"/>
				<circle class="st0" cx="2.7" cy="1.9" r="0.2"/>
				<path class="st0" d="M0.2,0.7l0.6-0.5c0,0,0.1,0,0.2,0l0,0c0,0,0,0.1,0,0.2L0.4,0.9c0,0-0.1,0-0.2,0l0,0C0.2,0.8,0.2,0.7,0.2,0.7z
					"/>
				<path class="st0" d="M0.4,0.4L0.4,0.4C0.4,0.5,0.5,0.6,0.4,0.4L0.4,0.4h0.2V0.3l0,0L0.4,0.4C0.5,0.4,0.4,0.4,0.4,0.4L0.4,0.4z"/>
				<path class="st1" d="M0.8,0L0.8,0L0.8,0v0.1c0,0.1-0.2,0.2-0.2,0.2s0,0,0.1,0.1l0,0L1,0.2l0,0l0,0L0.8,0z"/>
				<path class="st0" d="M0,0.7L0,0.7C0,0.6,0,0.6,0,0.7h0.1c0.1,0,0.2-0.2,0.3-0.1c0,0,0,0,0,0.1l0,0L0.2,0.9l0,0L0,0.7z"/>
				<polygon class="st0" points="0,0.7 0,0.7 0,0.7 0,0.7 		"/>
				<polygon class="st2" points="0.4,0.3 0.4,0.3 0.4,0.3 0.4,0.3 		"/>
				<polygon class="st2" points="0.8,0 0.8,0 0.8,0 0.8,0 		"/>
				<path class="st0" d="M2.4,2.5c0,0.1,0,0.1-0.1,0.2s0,0.1,0,0.2l0.2,0.2c0-0.1,0-0.2-0.1-0.3C2.4,2.7,2.4,2.6,2.4,2.5z"/>
				<path class="st0" d="M3.2,3.3H3H2.8L2.6,3.2c0.1,0,0.2,0,0.3,0.1H3.2z"/>
				<line class="st0" x1="2.8" y1="3.4" x2="2.6" y2="3.2"/>
				<path class="st0" d="M3.1,3.3"/>
				<path class="st0" d="M2.4,2.7"/>
				<path class="st0" d="M2.8,2.8L2.4,3l0.3,0.3L2.8,2.8z"/>
				<g transform="translate(1.836 2.846)">
					<path class="st0" d="M0.2,0.3L0.2,0.3L0.2,0.3L0,0.4L0.6,1l0.2-0.2l0,0l0,0L0.2,0.3z M0.4,0.7C0.3,0.7,0.3,0.6,0.4,0.7
						c-0.1-0.1,0-0.1,0-0.1S0.4,0.6,0.4,0.7C0.4,0.6,0.4,0.7,0.4,0.7L0.4,0.7z"/>
					<path class="st0" d="M1,0.5L0.5,0c0,0.1-0.1,0.2-0.2,0.3l0.5,0.5c0-0.1,0.1-0.1,0.1-0.1C0.9,0.6,0.9,0.5,1,0.5z M0.5,0.3L0.5,0.3
						C0.4,0.2,0.4,0.2,0.5,0.3L0.5,0.3C0.5,0.2,0.5,0.2,0.5,0.3L0.5,0.3C0.5,0.2,0.5,0.2,0.5,0.3L0.5,0.3z M0.7,0.4
						C0.7,0.4,0.7,0.5,0.7,0.4H0.6l0,0V0.3l0,0L0.7,0.4C0.7,0.3,0.7,0.3,0.7,0.4L0.7,0.4z M0.8,0.6L0.8,0.6C0.7,0.5,0.7,0.5,0.8,0.6
						C0.8,0.5,0.8,0.5,0.8,0.6C0.8,0.5,0.8,0.5,0.8,0.6L0.8,0.6L0.8,0.6z"/>
					<path class="st0" d="M0.2,0.3l0.5,0.5l0,0L0.2,0.3L0.2,0.3z"/>
				</g>
				<polygon class="st0" points="2.4,2.5 2.4,2.5 2.4,2.5 2.4,2.5 		"/>
				<polygon class="st0" points="2.8,2.8 2.8,2.8 2.8,2.8 2.8,2.8 		"/>
				<polygon class="st0" points="3.2,3.3 3.2,3.3 3.2,3.3 3.2,3.3 		"/>
			</g>
			<g transform="translate(772.3 430.585)">
				<g transform="translate(16.472 5.432)">
					<path class="st3" d="M0.6,9.5C1.3,9.8,2,10,2.7,10.3c1,0.3,2,0.6,2.9,0.8h5.5c0.1-2.6,0.1-5.3,0.1-8.1c0-0.8,0-1.6-0.1-2.5"/>
					<path class="st3" d="M6.7,8.9C5.9,8.9,5,9,4.1,9.1C2.9,9.2,1.8,9.3,0.6,9.4"/>
					<path class="st3" d="M9.4,6.5C9.7,5.7,9.9,4.8,10.1,4c0.3-1.1,0.6-2.3,0.9-3.4"/>
					<path class="st3" d="M6.5,9L5.4,4.6"/>
					<path class="st3" d="M5.5,4.5l4,1.9"/>
					<path class="st3" d="M0.6,9.5c0,0.1,0,0.1-0.1,0.1c-0.1,0.1-0.3,0.1-0.4,0S0,9.3,0.1,9.2s0.3-0.1,0.4,0c0,0,0.1,0.1,0.1,0.2"/>
					<path class="st3" d="M5.6,4.5c0.1-0.1,0-0.3-0.1-0.4s-0.3,0-0.4,0.1C5,4.4,5,4.5,5.2,4.6c0.1,0,0.1,0,0.2,0"/>
					<path class="st3" d="M11.1,0.6c0.2,0,0.3-0.2,0.2-0.3c0-0.2-0.2-0.3-0.3-0.2c-0.2,0-0.3,0.2-0.2,0.3c0,0.1,0,0.1,0.1,0.1
						C10.9,0.5,11,0.6,11.1,0.6"/>
				</g>
				<path class="st3" d="M12.4,1.8h13.2c0.3,0,0.5,0.2,0.5,0.5l0,0c0,0.3-0.2,0.5-0.5,0.5H8.9c-0.3,0-0.5-0.2-0.5-0.5l0,0
					c0-0.1,0-0.3,0.1-0.4"/>
				<path class="st3" d="M21.3,6.2H8.7C8.4,6.2,8.2,6,8.2,5.7l0,0c0-0.3,0.2-0.5,0.5-0.5h14.2"/>
				<path class="st3" d="M11.5,9.7c-0.3,0-0.5-0.2-0.5-0.5l0,0c0-0.3,0.2-0.5,0.5-0.5h6.1c0.3,0,0.5,0.2,0.5,0.5l0,0
					c0,0.3-0.2,0.5-0.5,0.5h-1"/>
				<line class="st4" x1="6" y1="11.8" x2="4.4" y2="11.8"/>
				<path class="st4" d="M4.4,11.8L4.4,11.8C4.4,11.9,4.4,11.9,4.4,11.8"/>
				<path class="st4" d="M6,11.8L6,11.8C6,11.9,6,11.9,6,11.8"/>
				<path class="st3" d="M1.6,2.7C0.9,2.8,0.2,2.3,0,1.6C-0.1,0.9,0.4,0.2,1.1,0c0.5-0.1,1.1,0.1,1.4,0.6"/>
			</g>
			<g transform="translate(769.861 428.83)">
				<circle class="st5" cx="5.8" cy="13" r="0.5"/>
				<circle class="st5" cx="9.5" cy="13.1" r="0.5"/>
				<rect x="0.1" y="0.1" class="st3" width="30.3" height="18.1"/>
				<path class="st3" d="M11.6,14.7c0-2.2-1.8-4-4-4l0,0l0,0c-2.2,0-4,1.8-4,4l0,0C6.1,16.1,9.1,16.1,11.6,14.7L11.6,14.7z"/>
				<path class="st3" d="M2.5,18.3h2c-0.6-0.7-0.9-1.6-0.9-2.6v-0.8c0-0.1,0-0.2,0-0.2c2.5,1.4,5.6,1.4,8.1,0c0,0.1,0,0.2,0,0.2v0.8
					c0,0.9-0.3,1.9-0.9,2.6h2.9"/>
				<path class="st6" d="M7.2,3.9C7.1,4.2,7,4.6,7,5.1c0,0.2,0,0.2-0.1,0.8c-0.2,0.8-0.2,1-0.3,1.3c0,0.2-0.1,0.5-0.2,0.7
					C6.3,8.2,6.1,8.4,5.9,8.7C5.8,8.8,5.6,8.9,5.4,9C5.3,9,5.3,9,5.2,9.1c-0.1,0-0.3,0-0.4,0C4.6,9,4.4,9,4.2,8.9
					C4.1,8.8,4,8.7,3.8,8.7c0,0,0.2-0.1,0.3-0.2c0.1-0.1,0.3-0.2,0.4-0.4C4.8,7.7,5.1,7.4,5.3,7c0.6-1.1,0.7-1.3,1-1.8
					c0.2-0.3,0.4-0.6,0.6-0.8L7.2,3.9z"/>
				<path class="st6" d="M0.1,5.1c0.2,0.2,0.3,0.5,0.5,0.8l0.2,0.4C0.5,6.1,0.2,5.9,0,5.8"/>
				<path class="st6" d="M0.8,6.3C0.9,6.4,1,6.6,1.1,6.8c0.2,0.3,0.4,0.6,0.6,0.9C1.9,8,2.2,8.3,2.5,8.5C2.6,8.7,2.8,8.7,3,8.8
					c0.1,0,0.2,0,0.4,0s0.3-0.1,0.5-0.1L3.5,8.5C3.4,8.4,3.2,8.3,3.1,8.1C3,8.1,2.9,8,2.5,7.6C2.1,7.3,2.1,7.3,2,7.1
					C1.8,7,1.6,6.8,1.4,6.7L0.8,6.3z"/>
				<path class="st6" d="M9.6,0v0.1C9.5,0.3,9.4,0.6,9.3,0.7C9.1,1,9,1.2,8.8,1.3C8.6,1.6,8.6,1.6,8.4,1.8C8.2,1.9,8.1,2.1,8,2.3
					C7.9,2.4,7.8,2.6,7.7,2.7C7.6,2.9,7.5,3.1,7.4,3.3c0,0.2-0.1,0.3-0.2,0.6l0.3-0.3c0,0,0.4-0.3,0.5-0.4c0.1-0.1,0.6-0.4,0.6-0.4
					C8.8,2.7,9,2.6,9.2,2.5c0.2-0.1,0.3-0.2,0.5-0.3C9.8,2.1,9.9,2,10,1.8c0.1-0.1,0.2-0.2,0.2-0.3c0.1-0.1,0.1-0.3,0.1-0.4
					c0-0.2,0-0.3-0.1-0.5c0-0.1-0.1-0.3-0.2-0.4c0,0,0,0-0.1-0.1"/>
				<path class="st6" d="M0.1,5.1l0.2,0.3c0,0,0.2,0.3,0.4,0.6C0.8,6.2,0.9,6.3,1,6.4C1.2,6.6,1.7,6.9,1.8,7C2,7.2,2.7,7.8,2.9,8
					C3,8,3,8.1,3,8.1l0.2,0.1c0.4,0.3,1,0.2,1.3-0.1l0,0c0.1-0.2,0.3-0.3,0.4-0.5c0-0.1,0.1-0.2,0.2-0.3c0.2-0.4,0.4-0.7,0.4-0.8
					C5.8,6,6,5.5,6.2,5.2C6.5,4.8,6.8,4.4,7.1,4c0.1-0.1,0.2-0.2,0.2-0.3c0.1-0.3,0.3-0.8,0.4-1C7.8,2.5,8.1,2,8.1,2L9,1
					c0.1-0.2,0.3-0.4,0.4-0.6"/>
			</g>
		</g>
</svg>
