<?xml version="1.0" encoding="utf-8"?>
<!-- Generator: Adobe Illustrator 23.0.1, SVG Export Plug-In . SVG Version: 6.00 Build 0)  -->
<svg version="1.1" id="dashboard" xmlns="http://www.w3.org/2000/svg" xmlns:xlink="http://www.w3.org/1999/xlink" x="0px" y="0px"
	 viewBox="0 0 29 31" style="enable-background:new 0 0 29 31;" xml:space="preserve">
	<style type="text/css">
		.st0{fill:none;stroke:#FFFFFF;stroke-width:2;stroke-linecap:round;stroke-linejoin:round;}
	</style>
	<g transform="translate(1 1)">
		<g transform="translate(0 0)">
			<path class="st0" d="M0,0v29h27"/>
			<path class="st0" d="M5.2,9.2L5.2,9.2c1.3,0,2.4,1.1,2.4,2.4l0,0V29l0,0H2.8l0,0V11.6C2.8,10.2,3.8,9.2,5.2,9.2L5.2,9.2z"/>
			<path class="st0" d="M13.4,15.6L13.4,15.6c1.3,0,2.4,1.1,2.4,2.4l0,0v11l0,0H11l0,0V18C11,16.6,12.1,15.6,13.4,15.6L13.4,15.6z"/>
			<path class="st0" d="M24.4,5.2V29h-4.8V5.6"/>
		</g>
		<g transform="translate(17.849 0.383)">
			<line class="st0" x1="6.5" y1="5.1" x2="6.5" y2="3.1"/>
			<path class="st0" d="M4.2,0.3L4.2,0.3L3,2.4L0.3,0.6H0.2l0.3,0.5c0.2,0.3,0.3,0.5,0.3,0.5C1,1.9,1.3,2.3,1.7,3.1v2.1"/>
			<path class="st0" d="M0.3,0.5c0-0.1-0.1-0.2-0.2-0.2S0,0.4,0,0.5s0.1,0.2,0.2,0.2l0,0h0.1V0.5L0.3,0.5z"/>
			<path class="st0" d="M4.2,0C4.1,0,4,0.1,4,0.2l0,0c0,0.1,0,0.1,0.1,0.1h0.1c0.1,0,0.1-0.1,0.1-0.1C4.3,0.1,4.2,0,4.2,0"/>
			<path class="st0" d="M8.1,0.7c0.1,0,0.2-0.1,0.1-0.2c0-0.1-0.1-0.2-0.2-0.1c0,0-0.1,0-0.1,0.1v0.1L8.1,0.7C8,0.7,8.1,0.7,8.1,0.7z
				"/>
			<path class="st0" d="M4.2,0.3l1,2.1L8,0.6l0,0L6.5,3.1"/>
		</g>
	</g>
</svg>
