<?xml version="1.0" encoding="utf-8"?>
<!-- Generator: Adobe Illustrator 23.0.1, SVG Export Plug-In . SVG Version: 6.00 Build 0)  -->
<svg version="1.1" id="employees" xmlns="http://www.w3.org/2000/svg" xmlns:xlink="http://www.w3.org/1999/xlink" x="0px" y="0px"
	 viewBox="0 0 31.7 14.3" style="enable-background:new 0 0 31.7 14.3;" xml:space="preserve">
		<style type="text/css">
			.st0{fill:none;stroke:#FFFFFF;stroke-linecap:round;stroke-linejoin:round;}
		</style>
		<g transform="translate(-866.497 -319.985)">
			<g transform="translate(872.239 326.674)">
				<line class="st0" x1="13.6" y1="3.4" x2="6.5" y2="3.4"/>
				<path class="st0" d="M6.4,3.2c0.1,0,0.2,0.1,0.1,0.2c0,0.1-0.1,0.1-0.1,0.1"/>
				<path class="st0" d="M13.8,3.2c-0.1,0-0.2,0.1-0.2,0.2c0,0.1,0.1,0.2,0.2,0.2"/>
				<path class="st0" d="M0.2,0C0.1,0,0,0.1,0,0.2s0.1,0.2,0.1,0.2"/>
				<path class="st0" d="M20.2,0c0.1,0,0.2,0.1,0.2,0.2s-0.1,0.2-0.1,0.2"/>
			</g>
			<g transform="translate(866.997 320.485)">
				<path class="st0" d="M23,11.3c0-4.2-3.4-7.7-7.7-7.7l0,0l0,0c-4.2,0-7.7,3.4-7.7,7.7l0,0C12.4,14,18.2,14,23,11.3L23,11.3z"/>
				<circle class="st0" cx="11.6" cy="7.7" r="0.8"/>
				<circle class="st0" cx="19.1" cy="7.7" r="0.8"/>
				<circle class="st0" cx="25.5" cy="4.5" r="0.8"/>
				<path class="st0" d="M7.9,9.7c-0.2,0-0.3,0-0.5,0C4.8,9.6,2.2,8.9,0,7.7C0,3.4,3.4,0,7.7,0l0,0l0,0c2.7,0,5.2,1.4,6.6,3.8"/>
				<circle class="st0" cx="5.4" cy="4.5" r="0.8"/>
				<path class="st0" d="M14.2,3.8C12.9,1.4,10.4,0,7.7,0l0,0c-2.6,0-5,1.3-6.4,3.4c0.3,0.3,0.4,0.8,0.1,1.1C1.2,4.8,0.9,4.9,0.6,4.8
					C0.2,5.7,0,6.7,0,7.7c2.2,1.3,4.8,1.9,7.3,2c0.2,0,0.4,0,0.5,0"/>
				<path class="st0" d="M14.2,3.8C12.9,1.4,10.4,0,7.7,0l0,0C4.1,0,1,2.4,0.2,5.9l5,0.5l-5-0.5C0.1,6.4,0,7,0,7.7
					c2.2,1.3,4.8,1.9,7.3,2c0.2,0,0.4,0,0.5,0"/>
				<path class="st0" d="M16.3,4"/>
				<path class="st0" d="M23.3,9.7c2.6-0.1,5.1-0.7,7.3-2c0-0.6-0.1-1.2-0.2-1.8l-4.8,0.5l4.8-0.5c-0.1-0.4-0.2-0.7-0.3-1.1
					c-0.4,0.1-0.9-0.1-1-0.5c-0.1-0.3,0-0.6,0.3-0.8C28,1.3,25.6,0,23,0l0,0"/>
				<path class="st0" d="M16.4,3.8c3.2,0.4,5.7,2.8,6.4,5.9"/>
				<path class="st0" d="M22.8,9.7c0.2,0,0.3,0,0.5,0c2.6-0.1,5.1-0.7,7.3-2C30.7,3.4,27.2,0,23,0l0,0l0,0c-2.7,0-5.2,1.4-6.6,3.8"/>
				<path class="st0" d="M14.2,3.8C12.9,1.4,10.4,0,7.7,0l0,0C3.4,0,0,3.4,0,7.7c2.2,1.3,4.8,1.9,7.3,2c0.2,0,0.3,0,0.5,0
					C8.6,6.6,11.1,4.2,14.2,3.8z"/>
			</g>
		</g>
</svg>
