<?xml version="1.0" encoding="utf-8"?>
<!-- Generator: Adobe Illustrator 23.0.1, SVG Export Plug-In . SVG Version: 6.00 Build 0)  -->
<svg version="1.1" id="Layer_1" xmlns="http://www.w3.org/2000/svg" xmlns:xlink="http://www.w3.org/1999/xlink" x="0px" y="0px"
	 viewBox="0 0 254.7 213.1" style="enable-background:new 0 0 254.7 213.1;" xml:space="preserve">
<style type="text/css">
	.st0{fill:none;stroke:#000000;stroke-width:2;stroke-linecap:round;stroke-linejoin:round;stroke-miterlimit:10;}
	.st1{fill:none;stroke:#000000;stroke-width:2;stroke-miterlimit:10;}
</style>
<title>Asset 6</title>
<g>
	<g id="Olav">
		<line class="st0" x1="184.4" y1="150.1" x2="184.4" y2="150.1"/>
		<path class="st1" d="M252,178.2c0-69-56-125-125-125l0,0c-69,0-125,56-125,125c39.8,22.2,84.7,33.4,130.2,32.6
			C174.1,209.9,215.3,198.7,252,178.2z"/>
		<line class="st0" x1="184.4" y1="150.1" x2="68.9" y2="150.1"/>
		<path class="st0" d="M66.2,146.8c1.6,0.2,2.8,1.6,2.8,3.2c-0.1,1.5-1.2,2.8-2.8,3.1"/>
		<path class="st0" d="M187.3,146.8c-1.6,0.2-2.8,1.6-2.7,3.2c0.1,1.5,1.2,2.8,2.7,3.1"/>
		<circle class="st1" cx="66.7" cy="119.3" r="12.8"/>
		<circle class="st1" cx="188.9" cy="119.2" r="12.8"/>
	</g>
</g>
<path class="st1" d="M53.6,15.4c0.5,0,1.1-0.1,1.5-0.4c3.8,6.4,7.6,12.8,11.5,19.3c5.3,9,10.5,18.1,15.7,27
	c13.9-5.3,28.9-8.2,44.7-8.2s30.9,2.9,44.8,8.3c4.8-8.9,9.8-17.9,15.1-27.1c4-6.7,7.7-13.2,11.5-19.6c0.4,0.2,0.9,0.3,1.3,0.3
	c1.8,0,3.3-1.5,3.3-3.3s-1.5-3.3-3.3-3.3s-3.3,1.5-3.3,3.3c0,0.7,0.2,1.3,0.6,1.9c-9.3,6.6-18.6,13.1-28.1,19.6
	c-7.3,5-14.5,10-21.7,14.9L128.5,7.8c1-0.6,1.8-1.6,1.8-2.9c0-1.8-1.5-3.3-3.3-3.3s-3.3,1.5-3.3,3.3c0,1.3,0.7,2.4,1.8,2.9
	l-19.3,41.1c-7.1-5.2-14.4-10.3-21.6-15.5c-9.4-6.7-18.7-13.2-28-19.7c0.3-0.5,0.4-1,0.4-1.6c0-1.8-1.5-3.3-3.3-3.3
	s-3.3,1.5-3.3,3.3C50.2,14,51.7,15.4,53.6,15.4z"/>
</svg>
