<?xml version="1.0" encoding="utf-8"?>
<!-- Generator: Adobe Illustrator 23.0.1, SVG Export Plug-In . SVG Version: 6.00 Build 0)  -->
<svg version="1.1" id="Layer_1" xmlns="http://www.w3.org/2000/svg" xmlns:xlink="http://www.w3.org/1999/xlink" x="0px" y="0px"
	 viewBox="0 0 400 350.5" style="enable-background:new 0 0 400 350.5;" xml:space="preserve">
<style type="text/css">
	.st0{fill:none;stroke:#000000;stroke-width:10;stroke-linecap:round;stroke-linejoin:round;}
</style>
<title>Asset 16</title>
<g>
	<g id="Jurgen">
		<circle class="st0" cx="205" cy="250.8" r="94"/>
		<path d="M170.1,267.6v-52c0-0.9,0.3-1.7,0.9-2.3c0.7-0.6,1.5-0.9,2.4-0.9h15.9c12.6,0,18.9,5.5,18.9,16.7
			c0.2,3.7-0.8,7.4-2.9,10.5c-1.8,2.6-4.5,4.6-7.6,5.5l10.5,19.4c0.3,0.4,0.4,0.8,0.4,1.3c-0.1,1.5-0.8,2.9-2.1,3.7
			c-1.2,1.1-2.8,1.7-4.4,1.7c-1.6,0-3-1-3.6-2.5l-11.4-22.1h-6.7v20.9c0,1-0.6,1.9-1.5,2.4c-1.1,0.6-2.4,0.9-3.7,0.9
			c-1.3,0-2.5-0.3-3.7-0.9C170.7,269.6,170.1,268.6,170.1,267.6z M180.5,238.5h8.8c4.7,0.4,8.8-3.1,9.2-7.7c0.4-4.7-3.1-8.8-7.7-9.2
			c-0.5,0-1,0-1.5,0h-8.8V238.5z"/>
		<path d="M214.9,285.3v-49.2c0-1,0.6-1.9,1.4-2.3c2.1-1.1,4.6-1.1,6.7,0c0.8,0.5,1.3,1.4,1.3,2.3v2.5c1.1-1.8,2.6-3.3,4.3-4.4
			c2-1.2,4.3-1.8,6.7-1.7c3.9,0,7.6,1.7,10.1,4.7c2.8,3.2,4.3,7.2,4.2,11.5v6.7c0.1,4.2-1.5,8.3-4.3,11.4c-2.3,3.1-5.9,4.9-9.7,5
			c-2.4,0.1-4.7-0.6-6.7-1.9c-1.8-1.1-3.2-2.6-4.1-4.5v20c-0.1,1-0.7,1.9-1.6,2.3c-1.1,0.7-2.4,1-3.7,1c-1.3,0-2.5-0.3-3.6-1
			C215.3,287,214.9,286.1,214.9,285.3z M225.2,256.6c0.2,1.5,1,2.8,2.1,3.7c1.3,1.4,3,2.1,4.9,2.1c1.9,0,3.7-0.8,5-2.3
			c1.3-1.3,2.1-3.2,2.1-5.1v-6.7c0-1.9-0.8-3.7-2.1-5c-1.3-1.4-3.2-2.2-5.1-2.1c-1.8,0-3.5,0.7-4.8,1.9c-1.4,1.3-2.2,3.2-2.1,5.2
			L225.2,256.6z"/>
		<path class="st0" d="M7.8,202.8c21.5,46.5,67.1,77.1,118.3,79.4"/>
		<path class="st0" d="M391.5,202.8c-21.4,46.5-67.1,77.2-118.2,79.4"/>
	</g>
	<g id="Olav">
		<line class="st0" x1="288.9" y1="157.7" x2="288.9" y2="157.7"/>
		<line class="st0" x1="288.9" y1="157.7" x2="110.3" y2="157.7"/>
		<path class="st0" d="M106,152.6c2.5,0.4,4.3,2.5,4.3,5.1c-0.1,2.4-1.9,4.3-4.3,4.7"/>
		<path class="st0" d="M293.3,152.6c-2.5,0.4-4.3,2.6-4.2,5.1c0.1,2.4,1.9,4.3,4.2,4.7"/>
		<path class="st0" d="M205,156.8c47.4,0,87.3,35.2,93.3,82.2c33.1-8.6,65.1-21.4,95-38C393.2,94.2,306.7,7.7,200,7.7l0,0
			C93.3,7.7,6.7,94.2,6.7,201c32.9,18.2,68.1,31.6,104.7,40C116.5,193.1,156.9,156.8,205,156.8z"/>
		<circle class="st0" cx="106.9" cy="110.2" r="19.9"/>
		<circle class="st0" cx="295.8" cy="109.9" r="19.9"/>
	</g>
</g>
</svg>
