<?xml version="1.0" encoding="utf-8"?>
<!-- Generator: Adobe Illustrator 23.0.1, SVG Export Plug-In . SVG Version: 6.00 Build 0)  -->
<svg version="1.1" id="products" xmlns="http://www.w3.org/2000/svg" xmlns:xlink="http://www.w3.org/1999/xlink" x="0px" y="0px"
	 viewBox="0 0 33.3 36.7" style="enable-background:new 0 0 33.3 36.7;" xml:space="preserve">
		<style type="text/css">
			.st0{fill:none;stroke:#FFFFFF;stroke-width:2;stroke-linecap:round;stroke-linejoin:round;}
			.st1{fill:none;stroke:#FFFFFF;stroke-linecap:round;stroke-linejoin:round;}
			.st2{fill:#FFFFFF;stroke:#FFFFFF;stroke-width:0.25;}
			.st3{fill:none;stroke:#FFFFFF;stroke-width:0.5;stroke-linecap:round;stroke-linejoin:round;}
			.st4{fill:#FFFFFF;stroke:#FFFFFF;stroke-miterlimit:10;}
			.st5{fill:#FFFFFF;stroke:#FFFFFF;stroke-width:2;stroke-linecap:round;stroke-linejoin:round;}
		</style>
		<g transform="translate(-804.274 -355.882)">
			<path class="st0" d="M815.2,365.3h6.4c5.5,0,9.9,4.4,9.9,9.9v6.4c0,5.5-4.4,9.9-9.9,9.9h-6.4c-5.5,0-9.9-4.4-9.9-9.9v-6.4
				C805.3,369.7,809.7,365.3,815.2,365.3z"/>
			<path class="st0" d="M810.4,365.3c-0.2-4.4,3.2-8.2,7.7-8.4c4.4-0.2,8.2,3.2,8.4,7.7c0,0.3,0,0.5,0,0.8"/>
			<path class="st1" d="M830.1,364.1c-0.3-0.3-0.7-0.3-1,0l0,0l-1.9,1.9c0.5,0.2,0.9,0.4,1.3,0.8l1.7-1.7
				C830.4,364.8,830.4,364.3,830.1,364.1z"/>
			<rect x="809.9" y="374.2" class="st1" width="17.1" height="10.2"/>
			<circle class="st2" cx="812.8" cy="377.2" r="0.7"/>
			<circle class="st2" cx="812.8" cy="379.3" r="0.7"/>
			<circle class="st2" cx="812.8" cy="381.5" r="0.7"/>
			<line class="st3" x1="814.9" y1="377.2" x2="824.1" y2="377.2"/>
			<line class="st3" x1="814.9" y1="379.3" x2="824.1" y2="379.3"/>
			<line class="st3" x1="814.9" y1="381.5" x2="824.1" y2="381.5"/>
			<path class="st0" d="M830.8,365.5l1.3,1.1c1.2,1,2.9,0.8,3.9-0.3l0,0l0,0c1-1.2,0.8-2.9-0.3-3.9l0,0l-3.8-3.2l-5.5-1l1.9,5.2
				l0.4,0.4"/>
			<path class="st4" d="M817.7,367.6l-0.9,0.9c-0.5,0.5-0.5,1.2,0,1.7c0.2,0.2,0.5,0.4,0.9,0.4h1.8c0.7,0,1.2-0.5,1.2-1.2
				c0-0.3-0.1-0.6-0.4-0.9l-0.9-0.9C818.9,367.2,818.2,367.2,817.7,367.6z"/>
			<path class="st5" d="M817.7,363.3l-2.9,2.9c-0.5,0.5-0.5,1.3,0,1.7c0.2,0.2,0.5,0.4,0.9,0.4h5.9c0.7,0,1.2-0.6,1.2-1.2
				c0-0.3-0.1-0.6-0.4-0.9l-2.9-2.9C819,362.8,818.2,362.8,817.7,363.3z"/>
		</g>
</svg>
