<?xml version="1.0" encoding="utf-8"?>
<!-- Generator: Adobe Illustrator 23.0.1, SVG Export Plug-In . SVG Version: 6.00 Build 0)  -->
<svg version="1.1" id="reports" xmlns="http://www.w3.org/2000/svg" xmlns:xlink="http://www.w3.org/1999/xlink" x="0px" y="0px"
	 viewBox="0 0 30.9 34.9" style="enable-background:new 0 0 30.9 34.9;" xml:space="preserve">
		<style type="text/css">
			.st0{fill:none;stroke:#FFFFFF;stroke-width:1.5;stroke-linecap:round;stroke-linejoin:round;}
			.st1{fill:none;stroke:#FFFFFF;stroke-width:1.5;stroke-linecap:round;}
		</style>
		<g transform="translate(0.75 0.75)">
			<path class="st0" d="M26.5,0H11.9C10.3,0,9,1.3,9,2.9v2.7h8.6c1.6,0,2.9,1.3,2.9,2.9v19.3h6.1c1.6,0,2.9-1.3,2.9-2.9l0,0v-22
				C29.4,1.3,28.1,0,26.5,0L26.5,0z"/>
			<line class="st0" x1="11.9" y1="2.7" x2="26.5" y2="2.7"/>
			<line class="st0" x1="11.9" y1="5.5" x2="26.5" y2="5.5"/>
			<line class="st0" x1="20.6" y1="8.3" x2="26.5" y2="8.3"/>
			<line class="st0" x1="20.6" y1="11.1" x2="26.6" y2="11.1"/>
			<path class="st1" d="M20.5,13.9h6.1"/>
			<path class="st1" d="M20.5,16.7h6.1"/>
			<line class="st0" x1="20.6" y1="19.5" x2="26.6" y2="19.5"/>
			<line class="st0" x1="20.6" y1="22.3" x2="26.6" y2="22.3"/>
			<line class="st0" x1="20.6" y1="25.2" x2="26.6" y2="25.1"/>
			<path class="st0" d="M4,5.6h12.5c2.2,0,4,1.8,4,4v19.8c0,2.2-1.8,4-4,4H4c-2.2,0-4-1.8-4-4V9.6C0,7.4,1.8,5.6,4,5.6z"/>
			<line class="st0" x1="2.9" y1="8.3" x2="17.5" y2="8.3"/>
			<line class="st0" x1="2.9" y1="11.1" x2="17.5" y2="11.1"/>
			<line class="st0" x1="2.9" y1="13.9" x2="17.5" y2="13.9"/>
			<line class="st0" x1="3" y1="16.7" x2="17.6" y2="16.7"/>
			<line class="st0" x1="3" y1="19.5" x2="17.6" y2="19.5"/>
			<line class="st0" x1="3" y1="22.3" x2="17.6" y2="22.3"/>
			<line class="st0" x1="3" y1="25.1" x2="17.6" y2="25.1"/>
			<line class="st0" x1="3" y1="27.9" x2="17.6" y2="27.9"/>
			<line class="st0" x1="3" y1="30.7" x2="17.6" y2="30.7"/>
		</g>
</svg>
