<?xml version="1.0" encoding="utf-8"?>
<!-- Generator: Adobe Illustrator 23.0.1, SVG Export Plug-In . SVG Version: 6.00 Build 0)  -->
<svg version="1.1" id="settings" xmlns="http://www.w3.org/2000/svg" xmlns:xlink="http://www.w3.org/1999/xlink" x="0px" y="0px"
	 viewBox="0 0 33.9 22.2" style="enable-background:new 0 0 33.9 22.2;" xml:space="preserve">
		<style type="text/css">
			.st0{fill:none;stroke:#FFFFFF;stroke-linecap:round;stroke-linejoin:round;}
			.st1{fill:#FFFFFF;stroke:#FFFFFF;stroke-linecap:round;stroke-linejoin:round;}
			.st2{fill:none;stroke:#FFFFFF;stroke-miterlimit:10;}
		</style>
		<g transform="translate(-698.103 -475.596)">
			<g transform="translate(716.981 484.798)">
				<line class="st0" x1="4.9" y1="0.2" x2="4.9" y2="0.2"/>
				<path class="st0" d="M4.9,0.2C3.3,0.8,1.6,0.8,0,0.2"/>
				<path class="st0" d="M5,0C4.9,0,4.8,0.2,4.9,0.3c0,0.1,0.1,0.1,0.2,0.1"/>
			</g>
			<g transform="translate(698.603 476.128)">
				<path class="st0" d="M32.9,10.5c0-4.1-3.3-7.3-7.3-7.3l0,0c-4.1,0-7.3,3.3-7.3,7.3C22.8,13.1,28.3,13.1,32.9,10.5L32.9,10.5z"/>
				<circle class="st0" cx="23" cy="7.1" r="0.8"/>
				<path class="st0" d="M25.8,12.4c-2.7,0-5.3-0.6-7.6-1.9c0,0.1,0,0.3,0,0.4v1.4c0,4.1,3.3,7.3,7.3,7.3c4.1,0,7.3-3.3,7.3-7.3v-1.5
					c0-0.1,0-0.3,0-0.4C30.7,11.7,28.3,12.4,25.8,12.4z"/>
				<path class="st0" d="M22.3,19.7c0,0.9,0,1.3,0,1.3s0-0.7,0-2.1"/>
				<path class="st0" d="M11.4,19.7c0,0.9,0,1.3,0,1.3s0-0.7,0-2.1"/>
				<path class="st0" d="M24.7,21.2v-4.9"/>
				<path class="st0" d="M8.9,21.1v-4.8"/>
				<path class="st0" d="M11.4,9L11,9.3c-0.2,0.2-0.2,0.4,0,0.6c0.1,0.1,0.2,0.1,0.3,0.1H12c0.2,0,0.4-0.2,0.4-0.4
					c0-0.1,0-0.2-0.1-0.3L12,9C11.8,8.9,11.5,8.9,11.4,9L11.4,9z"/>
				<path class="st0" d="M14.7,10.2V8.7c0-3.4-3.3-6.2-7.3-6.2l0,0C3.3,2.5,0,5.3,0,8.7v6.2c0,2.2,2.1,4,4.7,4H10c2.6,0,4.7-1.8,4.7-4
					v-4.5C14.7,10.4,14.7,10.3,14.7,10.2z"/>
				<circle class="st0" cx="8.6" cy="6.4" r="0.8"/>
				<path class="st1" d="M11.4,7.5l-1,1c-0.2,0.2-0.2,0.4,0,0.6c0.1,0.1,0.2,0.1,0.3,0.1h2.1c0.2,0,0.4-0.2,0.4-0.4
					c0-0.1,0-0.2-0.1-0.3l-1-1C11.8,7.3,11.5,7.3,11.4,7.5z"/>
				<path class="st0" d="M9.1,0.7C8.9,0.9,8.7,1.2,8.7,1.5c-0.1,0.3-0.1,0.6,0,0.9c0.8,0.1,1.6,0.4,2.4,0.7l0,0c0.7,0.4,1.4,0.9,2,1.5
					c0.3-0.1,0.5-0.3,0.7-0.5c0.2-0.2,0.3-0.5,0.4-0.8c0.1,0,0.2-0.1,0.2-0.1c0-0.1-0.1-0.2-0.1-0.2c-0.1,0-0.2,0.1-0.2,0.1s0,0,0,0.1
					c-0.1,0.1-0.3,0.2-0.5,0.2c-0.7,0.1-1.3-0.5-1.6-0.5v-1c0.1,0,0.2-0.1,0.1-0.2c0-0.1-0.1-0.2-0.2-0.1c-0.1,0-0.2,0.1-0.1,0.2l0,0
					L11,2.3c-0.2-0.3-1-0.4-1.3-1C9.3,1.1,9.3,0.9,9.3,0.8c0.1,0,0.1-0.1,0.1-0.2S9.3,0.5,9.2,0.5S9,0.6,9.1,0.7L9.1,0.7L9.1,0.7z"/>
				<path class="st0" d="M18.7,7.8c0.2-0.4,0.4-0.9,0.6-1.3c-0.3-0.3-0.8-0.3-1.1,0c-0.3,0.3-0.3,0.8,0,1.1
					C18.4,7.7,18.6,7.8,18.7,7.8z"/>
				<path class="st2" d="M23.6,0c-0.1,0-0.1,0.1-0.1,0.2l0,0c0,0,0,0.1,0.1,0.1c-0.3,0.6-0.5,1.1-0.8,1.7c-0.2,0.4-0.4,0.8-0.6,1.2
					l-1.9-1.4c0.1-0.1,0-0.2,0-0.2c-0.1-0.1-0.2,0-0.2,0c-0.1,0.1,0,0.2,0,0.2h0.1c0.1,0.8,0.1,1.6,0.2,2.4C19.9,4.1,19.5,4.1,19,4
					c-0.6-0.1-1.3-0.1-1.9-0.2V3.7c0-0.1-0.1-0.1-0.2-0.1s-0.1,0.1-0.1,0.2c0,0.1,0.1,0.1,0.2,0.1l0,0c0,0,0,0,0.1-0.1
					c0.4,0.2,0.7,0.4,1.1,0.6c0.5,0.3,1.1,0.6,1.6,1l1.3-1.2L21.9,4l1.8-0.6c0-0.6,0-1.2,0-1.9c0-0.4,0-0.9,0-1.3h0.1
					c0.1,0,0.1-0.1,0-0.2C23.8,0,23.7,0,23.6,0L23.6,0z"/>
				<path class="st0" d="M14.4,5.7c-0.2,0-0.4,0.1-0.5,0.2c0.3,0.4,0.5,0.8,0.6,1.3c0.4-0.1,0.7-0.4,0.7-0.8C15,6,14.7,5.7,14.4,5.7
					L14.4,5.7z"/>
				<path class="st0" d="M18.2,12.5c-0.3,0.2-0.7,0.1-1-0.1c-0.1-0.1-0.3-0.3-0.3-0.5"/>
				<path class="st0" d="M4.8,11.5c-0.4,0.5-0.6,1.1-0.7,1.7c-0.1,1.2,0.3,2.4,1.1,3.3"/>
				<path class="st0" d="M14.7,12.2c0.5,0.3,1,0.6,1.3,0.4c0.4-0.2,0.2-1.1,0.4-1.1c0.3-0.1,0.7,2.4,2,3c0.6,0.3,1.7,0.2,3.8-1.3"/>
			</g>
		</g>
</svg>
