<svg xmlns="http://www.w3.org/2000/svg" width="42.142" height="44.421" viewBox="0 0 42.142 44.421">
  <g id="Group_22" data-name="Group 22" transform="translate(-717.664 -204.365)">
    <path id="Path_195" data-name="Path 195" d="M758.806,236.363v11.423H718.664V207.643h40.142v11.251" fill="none" stroke="#000" stroke-linecap="round" stroke-linejoin="round" stroke-width="2"/>
    <path id="Path_196" data-name="Path 196" d="M727.536,222.7a1.368,1.368,0,0,1,.7-1.271l3.168-1.92a1.269,1.269,0,0,1,.7-.168,2.048,2.048,0,0,1,1.14.336.982.982,0,0,1,.516.839v15.264a.936.936,0,0,1-.552.853,3.065,3.065,0,0,1-2.641,0,.933.933,0,0,1-.551-.853V223.565l-.7.433a1.06,1.06,0,0,1-.6.191,1.006,1.006,0,0,1-.84-.456A1.685,1.685,0,0,1,727.536,222.7Z" fill="none" stroke="#000" stroke-linecap="round" stroke-linejoin="round" stroke-width="2"/>
    <rect id="Rectangle_30" data-name="Rectangle 30" width="32.401" height="32.401" transform="translate(722.534 211.514)" stroke-width="2" stroke="#000" stroke-linecap="round" stroke-linejoin="round" fill="none"/>
    <path id="Rectangle_31" data-name="Rectangle 31" d="M.7,0h1.7a.7.7,0,0,1,.7.7V8.684a1.544,1.544,0,0,1-1.544,1.544h0A1.544,1.544,0,0,1,0,8.684V.7A.7.7,0,0,1,.7,0Z" transform="translate(748.85 204.365)"/>
    <path id="Rectangle_32" data-name="Rectangle 32" d="M.7,0h1.7a.7.7,0,0,1,.7.7V8.684a1.544,1.544,0,0,1-1.544,1.544h0A1.544,1.544,0,0,1,0,8.684V.7A.7.7,0,0,1,.7,0Z" transform="translate(741.438 204.365)"/>
    <path id="Rectangle_33" data-name="Rectangle 33" d="M.7,0h1.7a.7.7,0,0,1,.7.7V8.684a1.544,1.544,0,0,1-1.544,1.544h0A1.544,1.544,0,0,1,0,8.684V.7A.7.7,0,0,1,.7,0Z" transform="translate(733.296 204.365)"/>
    <path id="Rectangle_34" data-name="Rectangle 34" d="M.7,0h1.7a.7.7,0,0,1,.7.7V8.684a1.544,1.544,0,0,1-1.544,1.544h0A1.544,1.544,0,0,1,0,8.684V.7A.7.7,0,0,1,.7,0Z" transform="translate(725.832 204.365)"/>
    <g id="Group_21" data-name="Group 21">
      <path id="Path_197" data-name="Path 197" d="M737.877,231.932a1.366,1.366,0,0,1,.179-.66l6.059-11.816a1.437,1.437,0,0,1,1.407-.861,2.028,2.028,0,0,1,1.087.37,1.071,1.071,0,0,1,.575.908,1.016,1.016,0,0,1-.128.434l-4.082,8.164a1.142,1.142,0,0,0,1.021,1.654h0a1.143,1.143,0,0,0,1.143-1.143v-1.67a.894.894,0,0,1,.486-.818,2.6,2.6,0,0,1,2.352,0,.894.894,0,0,1,.486.818v2.813h1.2a.872.872,0,0,1,.767.434,1.866,1.866,0,0,1,.281,1.035,1.68,1.68,0,0,1-.32,1,.9.9,0,0,1-.728.445h-1.2v3.149a.9.9,0,0,1-.486.8,2.473,2.473,0,0,1-2.339,0,.893.893,0,0,1-.5-.8v-2.006a1.143,1.143,0,0,0-1.143-1.143H739a1.127,1.127,0,0,1-.806-.3A1.054,1.054,0,0,1,737.877,231.932Z" fill="none" stroke="#000" stroke-linecap="round" stroke-linejoin="round" stroke-width="2"/>
    </g>
  </g>
</svg>
