<svg xmlns="http://www.w3.org/2000/svg" width="277.581" height="215.204" viewBox="0 0 277.581 215.204">
  <g id="Experienced" transform="translate(13.586 -147.642)">
    <path id="Path_224" data-name="Path 224" d="M-12.086,211.877l137.293-50.829v175.6l-137.293-2.991Z" transform="translate(0 3.591)" fill="none" stroke="#000" stroke-linecap="round" stroke-linejoin="round" stroke-width="3"/>
    <path id="Path_225" data-name="Path 225" d="M91.876,161.048l137.288,50.829V333.654L91.876,336.645Z" transform="translate(33.33 3.591)" fill="none" stroke="#000" stroke-linecap="round" stroke-linejoin="round" stroke-width="3"/>
    <path id="Path_226" data-name="Path 226" d="M8.519,227.535l4.763,4.924a.308.308,0,0,1,.075.339l-1.832,4.131a.5.5,0,0,1-.448.239l-5.848-.048a.6.6,0,0,1-.417-.161L.056,232.046a1.213,1.213,0,0,0-1.505-.115,4.757,4.757,0,0,0-1.858,2.743.779.779,0,0,0-.034.182A7.885,7.885,0,0,0-.73,240.9a14.525,14.525,0,0,0,12.453,3.893,2.431,2.431,0,0,1,2.376.594c.783.814,19.686,21.674,19.686,21.674,1.6,1.931,5.145,2.31,7.485,1.062a3.942,3.942,0,0,0,2.112-2.658,3.115,3.115,0,0,0-1.1-2.954S21.9,242.657,20.978,241.7a1.254,1.254,0,0,1-.433-1.112,1.494,1.494,0,0,1,.441-.746,5.5,5.5,0,0,0,1.471-2.856,8.55,8.55,0,0,0-2.394-7.167,12.749,12.749,0,0,0-6.874-3.773,8.445,8.445,0,0,0-4.388.387.672.672,0,0,0-.485.794.6.6,0,0,0,.181.306Zm30.8,36.394a1.092,1.092,0,0,1,.033,1.562,1.212,1.212,0,0,1-.376.271,2.207,2.207,0,0,1-2.444-.347,1.092,1.092,0,0,1-.033-1.562,1.211,1.211,0,0,1,.376-.271,2.206,2.206,0,0,1,2.444.342Z" transform="translate(10.796 24.387)"/>
    <path id="Path_227" data-name="Path 227" d="M192.149,259.629c6.67-12.074,5.247-26.049-3.7-32.217-5.919-4.083-13.722-3.788-20.809-.005a8.091,8.091,0,0,0-2.574-2.949c-4.52-3.118-11.662-.395-15.678,5.457-5.906-1.255-12.9,2.579-17.04,8.8-5.078,7.626-4.856,17.6.943,21.6l38.177,26.331c5.8,4,15,.507,20.068-7.111,4.522-6.792,4.763-15.363.61-19.909Zm-6.879-8.569-29.04,9.747h0a2.29,2.29,0,0,1-1.9-.091,2.335,2.335,0,0,1-.775-1.8l-.813-12.991a.889.889,0,0,1,.576-.865l3.857-1.285a.5.5,0,0,1,.446.04.507.507,0,0,1,.2.407l.647,10.281L185,245.56a.5.5,0,0,1,.445.04.477.477,0,0,1,.2.405l.189,4.147a.868.868,0,0,1-.561.9Z" transform="translate(45.146 23.502)"/>
    <path id="Path_228" data-name="Path 228" d="M45.314,165.953,62.086,159.9l1.64,12.7L47.07,178.764Q46.193,172.358,45.314,165.953Z" transform="translate(18.402 3.223)" fill="#be5347" stroke="#000" stroke-miterlimit="10" stroke-width="3"/>
    <path id="Path_229" data-name="Path 229" d="M73.314,157.169l17.643-7.323q.3,6.234.6,12.468l-17.6,6.516Q73.633,163,73.314,157.169Z" transform="translate(27.379 0)" fill="#d45c4f" stroke="#000" stroke-miterlimit="10" stroke-width="3"/>
    <path id="Path_230" data-name="Path 230" d="M101.183,152.536l17.672,7.69.042,8.867-17.6-6.517Z" transform="translate(36.314 0.862)" fill="#faedec" stroke="#000" stroke-miterlimit="10" stroke-width="3"/>
    <ellipse id="Ellipse_105" data-name="Ellipse 105" cx="111.811" cy="15.125" rx="111.811" ry="15.125" transform="translate(13.396 332.595)" fill="#d45c4f" opacity="0.1"/>
    <path id="Path_231" data-name="Path 231" d="M180.623,182.915H158.606v1.068c0,2.8-5.618,5.064-12.55,5.064H76.029c-6.931,0-12.552-2.265-12.556-5.062v-1.071H42.861c-8.419,0-15.244,2.753-15.244,6.151h0V325.978c0,3.4,6.825,6.15,15.244,6.15H180.623c8.419,0,15.244-2.753,15.244-6.15v-136.9c.015-3.4-6.8-6.155-15.217-6.162Z" transform="translate(12.729 10.602)" fill="#d45c4f"/>
    <rect id="Rectangle_43" data-name="Rectangle 43" width="134.013" height="114.772" transform="translate(57.455 208.505)" opacity="0.1"/>
    <g id="Group_23" data-name="Group 23" transform="translate(24.826 194.773)">
      <path id="Path_232" data-name="Path 232" d="M139.257,199.634h15.859" transform="translate(23.694 -178.811)" fill="none" stroke="#000" stroke-miterlimit="10" stroke-width="3"/>
      <path id="Path_233" data-name="Path 233" d="M111.042,199.634h27.141" transform="translate(14.649 -178.811)" fill="none" stroke="#000" stroke-miterlimit="10" stroke-width="3"/>
      <path id="Path_234" data-name="Path 234" d="M64.011,199.634h52.362" transform="translate(-0.429 -178.811)" fill="none" stroke="#000" stroke-miterlimit="10" stroke-width="3"/>
      <path id="Path_235" data-name="Path 235" d="M48.243,199.634H58.574" transform="translate(-5.485 -178.811)" fill="none" stroke="#000" stroke-miterlimit="10" stroke-width="3"/>
      <path id="Path_236" data-name="Path 236" d="M23.81,199.634H45.584" transform="translate(-13.318 -178.811)" fill="none" stroke="#000" stroke-miterlimit="10" stroke-width="3"/>
      <path id="Path_237" data-name="Path 237" d="M31.925,203.413s8.59,1.193,4.141-8.025c-1.445-3-.685-3.692-.486-4.243.469-1.294,2.118-2.742,7.4-3.305" transform="translate(-10.716 -182.592)" fill="none" stroke="#000" stroke-miterlimit="10" stroke-width="3"/>
      <path id="Path_238" data-name="Path 238" d="M75.256,199.644s8.592-1.19,4.141,8.028c-1.438,2.981-.7,3.681-.486,4.243.478,1.276,2.139,2.676,7.4,3.151" transform="translate(3.176 -178.824)" fill="none" stroke="#000" stroke-miterlimit="10" stroke-width="3"/>
      <path id="Path_239" data-name="Path 239" d="M137.877,203.3a12.954,12.954,0,0,0-.437,3.183c-.025,2.421.667,3.375.487,4.243-.289,1.4-2.9,2.835-12.56,3.232" transform="translate(19.241 -177.635)" fill="none" stroke="#000" stroke-miterlimit="10" stroke-width="3"/>
      <path id="Path_240" data-name="Path 240" d="M108.82,211.368H91.813" transform="translate(8.484 -175.049)" fill="none" stroke="#000" stroke-miterlimit="10" stroke-width="2"/>
      <path id="Path_241" data-name="Path 241" d="M129.6,211.368H112.159" transform="translate(15.007 -175.049)" fill="none" stroke="#000" stroke-miterlimit="10" stroke-width="3"/>
      <circle id="Ellipse_106" data-name="Ellipse 106" cx="5.246" cy="5.246" r="5.246" transform="translate(0 15.577)" fill="none" stroke="#000" stroke-miterlimit="10" stroke-width="3"/>
      <circle id="Ellipse_107" data-name="Ellipse 107" cx="5.246" cy="5.246" r="5.246" transform="translate(32.266)" fill="none" stroke="#000" stroke-miterlimit="10" stroke-width="3"/>
      <circle id="Ellipse_108" data-name="Ellipse 108" cx="5.246" cy="5.246" r="5.246" transform="translate(32.266 15.577)" fill="none" stroke="#000" stroke-miterlimit="10" stroke-width="3"/>
      <circle id="Ellipse_109" data-name="Ellipse 109" cx="5.246" cy="5.246" r="5.246" transform="translate(53.089 15.577)" fill="none" stroke="#000" stroke-miterlimit="10" stroke-width="3"/>
      <circle id="Ellipse_110" data-name="Ellipse 110" cx="5.246" cy="5.246" r="5.246" transform="translate(89.487 30.996)" fill="none" stroke="#000" stroke-miterlimit="10" stroke-width="3"/>
      <circle id="Ellipse_111" data-name="Ellipse 111" cx="5.246" cy="5.246" r="5.246" transform="translate(116.99 30.996)" fill="none" stroke="#000" stroke-miterlimit="10" stroke-width="3"/>
      <circle id="Ellipse_112" data-name="Ellipse 112" cx="5.246" cy="5.246" r="5.246" transform="translate(115.556 15.577)" fill="none" stroke="#000" stroke-miterlimit="10" stroke-width="3"/>
      <circle id="Ellipse_113" data-name="Ellipse 113" cx="5.246" cy="5.246" r="5.246" transform="translate(178.347 15.577)" fill="none" stroke="#000" stroke-miterlimit="10" stroke-width="3"/>
      <circle id="Ellipse_114" data-name="Ellipse 114" cx="5.246" cy="5.246" r="5.246" transform="translate(152.66 15.577)" fill="none" stroke="#000" stroke-miterlimit="10" stroke-width="3"/>
    </g>
    <path id="Path_242" data-name="Path 242" d="M138.991,253.588a38.3,38.3,0,0,0-38.305-38.305h0A38.305,38.305,0,0,0,62.38,253.588a78.4,78.4,0,0,0,76.611,0Z" transform="translate(23.874 20.979)" fill="#fff" stroke="#000" stroke-linecap="round" stroke-linejoin="round" stroke-width="3"/>
    <path id="Path_243" data-name="Path 243" d="M100.685,215.283h0a38.145,38.145,0,0,0-15.5,3.279,3.928,3.928,0,1,1-6.682,3.81A38.249,38.249,0,0,0,62.38,253.588a78.4,78.4,0,0,0,76.611,0A38.3,38.3,0,0,0,100.685,215.283Z" transform="translate(23.874 20.979)" fill="#fff" stroke="#000" stroke-linecap="round" stroke-linejoin="round" stroke-width="3"/>
    <path id="Path_244" data-name="Path 244" d="M113.309,226.085a69.295,69.295,0,0,1-35.388,0" transform="translate(28.856 24.442)" fill="none" stroke="#000" stroke-linecap="round" stroke-linejoin="round" stroke-width="3"/>
    <path id="Path_245" data-name="Path 245" d="M77.281,225.326a.975.975,0,0,1,0,1.932" transform="translate(28.651 24.199)" fill="none" stroke="#000" stroke-linecap="round" stroke-linejoin="round" stroke-width="3"/>
    <path id="Path_246" data-name="Path 246" d="M105.559,225.326a.975.975,0,0,0,0,1.932" transform="translate(37.447 24.199)" fill="none" stroke="#000" stroke-linecap="round" stroke-linejoin="round" stroke-width="3"/>
    <path id="Path_247" data-name="Path 247" d="M102.273,254.251a78.924,78.924,0,0,1-39.767-9.91,22.352,22.352,0,0,0-.125,2.24v7.563a38.305,38.305,0,0,0,76.611,0v-7.63c0-.736-.051-1.458-.121-2.175A78.769,78.769,0,0,1,102.273,254.251Z" transform="translate(23.874 30.294)" fill="#fff" stroke="#000" stroke-linecap="round" stroke-linejoin="round" stroke-width="3"/>
    <path id="Path_248" data-name="Path 248" d="M63,244.339c-1.767,4.882-1.117,8.046-.448,9.805,3.3,8.662,18.6,13.36,37.922,9.49" transform="translate(23.706 30.294)" fill="none" stroke="#000" stroke-linecap="round" stroke-linejoin="round" stroke-width="3"/>
    <path id="Path_249" data-name="Path 249" d="M128.989,244.339a26.158,26.158,0,0,1-37.114,30.4" transform="translate(33.33 30.294)" fill="none" stroke="#000" stroke-linecap="round" stroke-linejoin="round" stroke-width="3"/>
    <path id="Path_250" data-name="Path 250" d="M81.7,279.323q1.3-6.527.889-6.636c-.674-.178-4.61,11.562-7.409,21.8-1.5,5.486-2.545,10.072-3.216,13.219" transform="translate(26.946 39.382)" fill="none" stroke="#000" stroke-linecap="round" stroke-linejoin="round" stroke-width="3"/>
    <path id="Path_251" data-name="Path 251" d="M103.926,279.994c-1.248-5.161-1.224-6.516-.889-6.636.652-.234,2.208,3.659,5.689,8.956,4.341,6.6,6.4,7.356,10.417,13.452a63.02,63.02,0,0,1,5.553,10.491" transform="translate(36.846 39.595)" fill="none" stroke="#000" stroke-linecap="round" stroke-linejoin="round" stroke-width="3"/>
    <path id="Path_252" data-name="Path 252" d="M106.715,224.252a3.941,3.941,0,0,0,3.633-2.414,38.271,38.271,0,0,0-6.728-3.942,3.9,3.9,0,0,0-.847,2.414A3.942,3.942,0,0,0,106.715,224.252Z" transform="translate(36.824 21.817)" fill="none" stroke="#000" stroke-linecap="round" stroke-linejoin="round" stroke-width="3"/>
  </g>
</svg>
