<svg xmlns="http://www.w3.org/2000/svg" width="52.954" height="52.673" viewBox="0 0 52.954 52.673">
  <g id="Basic" transform="translate(-606.091 -84.507)">
    <g id="Logo_Name" data-name="Logo Name" transform="translate(636.101 98.391)">
      <g id="Group_14" data-name="Group 14">
        <rect id="Rectangle_19" data-name="Rectangle 19" width="0.971" height="7.959" rx="0.485" transform="translate(0.587 3.352) rotate(-32.801)"/>
        <rect id="Rectangle_20" data-name="Rectangle 20" width="0.971" height="3.98" rx="0.485" transform="translate(8.222 6.502) rotate(12.199)"/>
        <rect id="Rectangle_21" data-name="Rectangle 21" width="0.658" height="2.697" rx="0.329" transform="matrix(0.977, 0.211, -0.211, 0.977, 7.283, 4.875)"/>
        <rect id="Rectangle_22" data-name="Rectangle 22" width="0.971" height="3.98" rx="0.485" transform="translate(4.465 9.74) rotate(-77.801)"/>
        <rect id="Rectangle_23" data-name="Rectangle 23" width="0.971" height="3.98" rx="0.485" transform="translate(1.357 0.949) rotate(-77.801)"/>
        <rect id="Rectangle_24" data-name="Rectangle 24" width="0.658" height="2.697" rx="0.329" transform="translate(9.953 5.453) rotate(12.199)"/>
        <rect id="Rectangle_25" data-name="Rectangle 25" width="0.971" height="3.98" rx="0.485" transform="translate(1.544 0.012) rotate(12.199)"/>
        <rect id="Rectangle_26" data-name="Rectangle 26" width="0.565" height="1.666" rx="0.283" transform="matrix(0.542, 0.841, -0.841, 0.542, 4.814, 2.517)"/>
        <rect id="Rectangle_27" data-name="Rectangle 27" width="0.565" height="1.666" rx="0.283" transform="translate(7.863 0.552) rotate(57.199)"/>
        <circle id="Ellipse_92" data-name="Ellipse 92" cx="0.475" cy="0.475" r="0.475" transform="translate(4.256 3.451)"/>
        <circle id="Ellipse_93" data-name="Ellipse 93" cx="0.475" cy="0.475" r="0.475" transform="translate(7.305 1.486)"/>
        <rect id="Rectangle_28" data-name="Rectangle 28" width="2.556" height="0.586" rx="0.293" transform="translate(0.453 3.049) rotate(-73.293)"/>
        <path id="Path_175" data-name="Path 175" d="M644.84,104.233h0a.249.249,0,0,0,.419-.1h0a.248.248,0,0,0-.295-.313h0A.248.248,0,0,0,644.84,104.233Z" transform="translate(-644.142 -102.222)"/>
        <path id="Path_176" data-name="Path 176" d="M645.016,102.416a.03.03,0,0,0-.029.051.575.575,0,0,1,.151.23c.118.346-.181.691-.06.812.035.035.112.061.315-.016a.033.033,0,0,0,.019-.02l.249-.83a.03.03,0,0,0-.02-.037Z" transform="translate(-644.186 -101.923)"/>
        <path id="Path_177" data-name="Path 177" d="M644.086,105.29a.03.03,0,0,1,0-.058.58.58,0,0,0,.253-.109c.289-.224.229-.677.4-.711.047-.009.127.012.254.187a.032.032,0,0,1,0,.027l-.249.83a.03.03,0,0,1-.037.02Z" transform="translate(-643.991 -102.349)"/>
        <circle id="Ellipse_94" data-name="Ellipse 94" cx="0.075" cy="0.075" r="0.075" transform="translate(0 2.831)"/>
        <circle id="Ellipse_95" data-name="Ellipse 95" cx="0.075" cy="0.075" r="0.075" transform="translate(0.359 1.634)"/>
        <circle id="Ellipse_96" data-name="Ellipse 96" cx="0.075" cy="0.075" r="0.075" transform="translate(0.718 0.437)"/>
        <path id="Path_178" data-name="Path 178" d="M653.95,106.258q.086.256.171.514c.052.156.1.314.155.47l.742.16q-.269-.282-.541-.573T653.95,106.258Z" transform="translate(-646.102 -102.744)"/>
        <path id="Path_179" data-name="Path 179" d="M657.236,107.054q-.183.195-.368.4-.168.184-.329.366l-.749-.162q.362-.145.731-.3T657.236,107.054Z" transform="translate(-646.495 -102.914)"/>
        <line id="Line_3" data-name="Line 3" x1="0.743" y1="0.161" transform="translate(9.295 4.741)"/>
        <path id="Path_180" data-name="Path 180" d="M657.277,107.281" transform="translate(-646.813 -102.962)"/>
        <path id="Path_181" data-name="Path 181" d="M654.232,106.948" transform="translate(-646.163 -102.891)"/>
        <path id="Path_182" data-name="Path 182" d="M655.643,106.479l-.72.942.977.208Z" transform="translate(-646.31 -102.791)"/>
        <g id="Group_13" data-name="Group 13" transform="translate(7.701 4.499)">
          <path id="Path_183" data-name="Path 183" d="M654.021,108.746c.014-.017.031-.037.048-.061l-.166-.035-.139.643,2.1.455L656,109.1l-.131-.028c.005.03.013.056.018.076Zm.916.592a.171.171,0,1,1,.051-.236A.17.17,0,0,1,654.937,109.338Z" transform="translate(-653.764 -107.753)"/>
          <path id="Path_184" data-name="Path 184" d="M656.189,107.914l-1.87-.4a1.077,1.077,0,0,1,.013.547,1.062,1.062,0,0,1-.179.385l1.8.39a1.066,1.066,0,0,1,.233-.917Zm-1.458.114a.107.107,0,1,1-.082-.128A.107.107,0,0,1,654.731,108.028Zm.7.083a.123.123,0,0,1-.037.169l-.175.113a.123.123,0,0,1-.17-.037l-.112-.175a.122.122,0,0,1,.036-.169l.175-.113a.122.122,0,0,1,.17.037Zm.419.157a.108.108,0,1,1-.083-.128A.108.108,0,0,1,655.845,108.269Z" transform="translate(-653.847 -107.51)"/>
          <path id="Path_185" data-name="Path 185" d="M654.091,108.755l1.87.4c-.005-.02-.013-.046-.018-.076l-1.8-.39C654.122,108.718,654.105,108.739,654.091,108.755Z" transform="translate(-653.834 -107.763)"/>
        </g>
        <circle id="Ellipse_97" data-name="Ellipse 97" cx="0.061" cy="0.061" r="0.061" transform="translate(7.786 3.456)"/>
        <circle id="Ellipse_98" data-name="Ellipse 98" cx="0.061" cy="0.061" r="0.061" transform="translate(9.272 3.628)"/>
        <circle id="Ellipse_99" data-name="Ellipse 99" cx="0.061" cy="0.061" r="0.061" transform="translate(10.68 4.079)"/>
      </g>
    </g>
    <g id="Olav" transform="translate(607.125 85.878)">
      <rect id="Rectangle_29" data-name="Rectangle 29" width="19.997" height="25.879" rx="3.786" transform="translate(50.549 22.243) rotate(149.261)" stroke-width="2" stroke="#000" stroke-linecap="round" stroke-linejoin="round" fill="none"/>
      <g id="Group_17" data-name="Group 17" transform="translate(0 35.138)">
        <g id="Group_16" data-name="Group 16">
          <g id="Group_15" data-name="Group 15">
            <path id="Path_186" data-name="Path 186" d="M608.279,142.77a5.6,5.6,0,0,0,1.763,1.458c2.925,1.788,5.623,1.453,11.876,1.416,3.075-.019,2.231.064,7.629.079,2.449.007,5.307,0,8.887-.236,4.12-.269,5.078-.566,5.82-.864a21.738,21.738,0,0,0,5.033-3.225c1.509-1.143,2.7-2.161,3.492-2.873a3.143,3.143,0,0,0,.434-4.471,3.234,3.234,0,0,0-4.427-.294l-3.9,2.6q-1.976,1.341-4.011,2.831-1.127.827-2.2,1.652l-19.338-.169a1.937,1.937,0,0,1-1.928-2.109,2.029,2.029,0,0,1,2.064-1.761h11.6a3.107,3.107,0,0,0,3.106-3.246,3.247,3.247,0,0,0-3.31-2.972H614.889a6.588,6.588,0,0,0-3.811.727C607.242,133.473,605.97,139.692,608.279,142.77Z" transform="translate(-607.125 -130.559)" fill="none" stroke="#000" stroke-linecap="round" stroke-linejoin="round" stroke-width="2"/>
          </g>
        </g>
      </g>
      <path id="Path_187" data-name="Path 187" d="M647.819,124.383l15.752-9.367a1.622,1.622,0,0,0,.565-2.222L654.2,96.084" transform="translate(-615.817 -88.058)" fill="none" stroke="#000" stroke-linecap="round" stroke-linejoin="round" stroke-width="2"/>
      <path id="Path_188" data-name="Path 188" d="M660.7,117.752l-15.751,9.367a1.622,1.622,0,0,1-2.223-.565l-9.936-16.71" transform="translate(-612.608 -90.997)" fill="none" stroke="#000" stroke-linecap="round" stroke-linejoin="round" stroke-width="2"/>
    </g>
  </g>
</svg>
