<svg xmlns="http://www.w3.org/2000/svg" viewBox="0 0 877.34 238.37"><defs><style>.cls-1{fill:#c66355;}</style></defs><title>Asset 2</title><g id="Layer_2" data-name="Layer 2"><g id="Logo_Name" data-name="Logo Name"><path class="cls-1" d="M0,164.61V83.2a4.85,4.85,0,0,1,2.94-4.48,15.11,15.11,0,0,1,7-1.53,15.08,15.08,0,0,1,7,1.53A4.84,4.84,0,0,1,20,83.2V98.06a5,5,0,0,0,9.14,2.9L43.9,80a6,6,0,0,1,5.25-2.81A12.28,12.28,0,0,1,57,80.45c2.61,2.18,3.91,4.5,3.91,7a6.53,6.53,0,0,1-1.28,3.84L40.92,114.79a5.05,5.05,0,0,0-.28,5.89l24.51,37.53a6.34,6.34,0,0,1,1,3.33q0,3.72-3.84,6.85a12.76,12.76,0,0,1-8.2,3.13,7.59,7.59,0,0,1-6.91-3.71l-18-27.4a5,5,0,0,0-8.18-.33h0A5,5,0,0,0,20,143.17v21.44A5,5,0,0,1,17,169.16a14.61,14.61,0,0,1-7,1.6,14.64,14.64,0,0,1-7-1.6A5,5,0,0,1,0,164.61Z"/><path class="cls-1" d="M101.76,141.32V107.4q0-15.62,8.58-22.92t22.78-7.29q14.34,0,22.91,7.29t8.58,22.92v33.92q0,15.62-8.58,22.91t-22.91,7.29q-14.2,0-22.78-7.29T101.76,141.32Zm20,0q0,12.8,11.39,12.8t11.52-12.8V107.4q0-12.81-11.52-12.8t-11.39,12.8Z"/><path class="cls-1" d="M209.41,164.61V83.33a5,5,0,0,1,2.94-4.54,14.5,14.5,0,0,1,7-1.6q5.76,0,8.51,1.66t6.21,8.32l11.25,21.45a5,5,0,0,0,9.49-2.34V83.2a4.85,4.85,0,0,1,2.94-4.48,17,17,0,0,1,14.08,0,4.86,4.86,0,0,1,2.95,4.48v81.41a5,5,0,0,1-2.95,4.55,14.61,14.61,0,0,1-7,1.6q-8.19,0-11.13-5.38l-14.88-27.09a5,5,0,0,0-9.44,2.43v23.89a5,5,0,0,1-2.95,4.55,16.29,16.29,0,0,1-14.08,0A5,5,0,0,1,209.41,164.61Z"/><path class="cls-1" d="M320.64,164.61V83.2a4.85,4.85,0,0,1,2.94-4.48,17,17,0,0,1,14.08,0,4.86,4.86,0,0,1,2.95,4.48v81.41a5,5,0,0,1-2.95,4.55,16.29,16.29,0,0,1-14.08,0A5,5,0,0,1,320.64,164.61Z"/><path class="cls-1" d="M618.53,164.61V83.33a5.06,5.06,0,0,1,2.56-4.54,11.36,11.36,0,0,1,6.15-1.6H672.8a4.9,4.9,0,0,1,4.48,2.56,11.41,11.41,0,0,1,1.54,6,11.61,11.61,0,0,1-1.6,6.28,5,5,0,0,1-4.42,2.56H641a2.48,2.48,0,0,0-2.48,2.48v16.67a2.48,2.48,0,0,0,2.48,2.48h14.76a7.9,7.9,0,0,1,8,7.71v.1a9.24,9.24,0,0,1-1.54,5.24,5,5,0,0,1-4.48,2.31H641a2.48,2.48,0,0,0-2.48,2.48v16.8a2.48,2.48,0,0,0,2.48,2.48H672.8a5,5,0,0,1,4.42,2.56,11.59,11.59,0,0,1,1.6,6.27,11.45,11.45,0,0,1-1.54,6,4.92,4.92,0,0,1-4.48,2.56H627.24a11.45,11.45,0,0,1-6.15-1.6A5.07,5.07,0,0,1,618.53,164.61Z"/><path class="cls-1" d="M719.52,164.61V83.2a4.84,4.84,0,0,1,3-4.48,17,17,0,0,1,14.08,0,4.85,4.85,0,0,1,2.94,4.48v67.67a2.48,2.48,0,0,0,2.48,2.48h26.7a4.72,4.72,0,0,1,4.23,2.56,13.11,13.11,0,0,1,0,12.29,4.74,4.74,0,0,1-4.23,2.56H728.23a11.45,11.45,0,0,1-6.15-1.6A5.07,5.07,0,0,1,719.52,164.61Z"/><path class="cls-1" d="M814.5,164.74V83.2A5.18,5.18,0,0,1,816.93,79a10.33,10.33,0,0,1,6.27-1.79h22.66q14.32,0,22.91,7.29t8.57,22.92v33.15q0,15.62-8.57,22.91t-22.91,7.3H823.2a10.26,10.26,0,0,1-6.27-1.8A5.17,5.17,0,0,1,814.5,164.74Zm20-13.87a2.49,2.49,0,0,0,2.49,2.48h8.91q11.52,0,11.52-12.8V107.4q0-12.81-11.52-12.8H837a2.49,2.49,0,0,0-2.49,2.48Z"/><rect class="cls-1" x="405.64" y="45.06" width="18.61" height="152.6" rx="9.3"/><rect class="cls-1" x="466.25" y="170.52" width="18.61" height="76.3" rx="9.3" transform="translate(286.84 -275.15) rotate(45)"/><rect class="cls-1" x="477.59" y="136.05" width="12.61" height="51.7" rx="6.3" transform="translate(256.21 -294.75) rotate(45)"/><rect class="cls-1" x="426.03" y="170.52" width="18.61" height="76.3" rx="9.3" transform="translate(-20.05 368.95) rotate(-45)"/><rect class="cls-1" x="467.25" y="-3.42" width="18.61" height="76.3" rx="9.3" transform="translate(115.02 347.14) rotate(-45)"/><rect class="cls-1" x="514.61" y="173.07" width="12.61" height="51.7" rx="6.3" transform="translate(293.23 -310.08) rotate(45)"/><rect class="cls-1" x="426.03" y="-3.42" width="18.61" height="76.3" rx="9.3" transform="translate(152.06 -297.66) rotate(45)"/><rect class="cls-1" x="461.02" y="64.95" width="10.84" height="31.94" rx="5.42" transform="translate(547.37 -385.52) rotate(90)"/><rect class="cls-1" x="530.58" y="64.95" width="10.84" height="31.94" rx="5.42" transform="translate(616.92 -455.07) rotate(90)"/><circle class="cls-1" cx="466.44" cy="97.35" r="9.11"/><circle class="cls-1" cx="536" cy="97.35" r="9.11"/><circle class="cls-1" cx="111.75" cy="45.06" r="9.98"/><circle class="cls-1" cx="154.63" cy="45.06" r="9.98"/><rect class="cls-1" x="404.4" y="21.52" width="49.01" height="11.24" rx="1.73" transform="translate(85.1 285) rotate(-40.49)"/><path class="cls-1" d="M420,17.21,422.71,32a.41.41,0,0,0,.68.24l11.46-9.78a.42.42,0,0,0-.14-.71l-14.2-5A.42.42,0,0,0,420,17.21Z"/><path class="cls-1" d="M439.23,1.52a.57.57,0,0,0-1,.52,11.08,11.08,0,0,1,.05,5.26c-1.7,6.8-10.11,9.26-9.4,12.46.2.91,1.18,2.14,5.24,3a.62.62,0,0,0,.51-.12l12.64-10.8a.57.57,0,0,0,.06-.81Z"/><path class="cls-1" d="M402,33.33a.58.58,0,0,1,.67-.9,10.93,10.93,0,0,0,5.19.88c7-.62,10.72-8.53,13.78-7.33.87.34,1.92,1.5,2.16,5.65a.62.62,0,0,1-.2.48L410.93,42.9a.57.57,0,0,1-.81-.06Z"/><circle class="cls-1" cx="402.01" cy="32.54" r="1.43"/><circle class="cls-1" cx="420.23" cy="16.99" r="1.43"/><circle class="cls-1" cx="438.45" cy="1.43" r="1.43"/><path class="cls-1" d="M521,123.09q-1.29,5-2.59,10.06c-.79,3.07-1.59,6.13-2.38,9.19l10.29,10.3q-1.41-7.35-2.77-14.87T521,123.09Z"/><path class="cls-1" d="M561.07,163.22c-3.31.83-6.67,1.69-10.05,2.58-3.07.81-6.11,1.64-9.11,2.47l-10.38-10.38q7.35,1.43,14.87,2.78C551.33,161.56,556.23,162.41,561.07,163.22Z"/><line class="cls-1" x1="541.83" y1="168.19" x2="531.53" y2="157.89"/><path class="cls-1" d="M543.07,141.32,521.69,149l13.58,13.52Z"/><path class="cls-1" d="M501.31,153.31l-8.92,8.92,29.15,29.15,8.92-8.92Zm9.51,21.84a3.27,3.27,0,1,1,3.27-3.26A3.26,3.26,0,0,1,510.82,175.15Z"/><path class="cls-1" d="M516,142.34a20.61,20.61,0,0,1-13.77,13.77L528.14,182a20.61,20.61,0,0,1,13.77-13.77ZM517.23,155a2.06,2.06,0,1,1,0-2.92A2,2,0,0,1,517.23,155Zm10.33,8.56a2.35,2.35,0,0,1-2.35,2.35h-4a2.35,2.35,0,0,1-2.35-2.35v-4a2.36,2.36,0,0,1,2.35-2.36h4a2.36,2.36,0,0,1,2.35,2.36Zm5.12,6.89a2.06,2.06,0,1,1,0-2.92A2.06,2.06,0,0,1,532.68,170.42Z"/><circle class="cls-1" cx="520.91" cy="123.13" r="1.17"/><circle class="cls-1" cx="543.08" cy="141.32" r="1.17"/><circle class="cls-1" cx="561.07" cy="163.22" r="1.17"/></g></g></svg>