<svg xmlns="http://www.w3.org/2000/svg" width="53.43" height="43.041" viewBox="0 0 53.43 43.041">
  <g id="Group_20" data-name="Group 20" transform="translate(-709.068 -126.297)">
    <line id="Line_4" data-name="Line 4" transform="translate(728.391 147.252)" fill="none" stroke="#000" stroke-linecap="round" stroke-linejoin="round" stroke-width="2"/>
    <line id="Line_5" data-name="Line 5" x2="23.757" transform="translate(728.391 147.252)" fill="none" stroke="#000" stroke-linecap="round" stroke-linejoin="round" stroke-width="2"/>
    <path id="Path_189" data-name="Path 189" d="M758.1,149.046a.655.655,0,0,0,0,1.3" transform="translate(-5.385 -2.467)" fill="none" stroke="#000" stroke-linecap="round" stroke-linejoin="round" stroke-width="2"/>
    <path id="Path_190" data-name="Path 190" d="M730.1,149.046a.655.655,0,0,1,0,1.3" transform="translate(-2.272 -2.467)" fill="none" stroke="#000" stroke-linecap="round" stroke-linejoin="round" stroke-width="2"/>
    <path id="Path_191" data-name="Path 191" d="M719.876,157.253a52.962,52.962,0,0,1-9.808-4.24,25.715,25.715,0,1,1,51.43,0,52.512,52.512,0,0,1-6.554,3.086" fill="none" stroke="#000" stroke-linecap="round" stroke-linejoin="round" stroke-width="2"/>
    <circle id="Ellipse_100" data-name="Ellipse 100" cx="2.646" cy="2.646" r="2.646" transform="translate(745.528 138.283)" stroke-width="2" stroke="#000" stroke-linecap="round" stroke-linejoin="round" fill="none"/>
    <circle id="Ellipse_101" data-name="Ellipse 101" cx="2.646" cy="2.646" r="2.646" transform="translate(730.187 138.249)" stroke-width="2" stroke="#000" stroke-linecap="round" stroke-linejoin="round" fill="none"/>
    <g id="Group_18" data-name="Group 18" transform="translate(718.75 150.592)">
      <path id="Path_192" data-name="Path 192" d="M739.011,162.627a2.461,2.461,0,0,0-1.232-1.169l-.535-.227-1.925-.817-.2-.086a.969.969,0,0,1-.514-1.272l.71-1.674a3.432,3.432,0,0,0,.045-2.712,2.05,2.05,0,0,0-.751-.827,2.106,2.106,0,0,0-.877-.268c-.809-.03-1.823,1.136-2.314,2.923a2.887,2.887,0,0,1-.492.788,3.352,3.352,0,0,1-1.841,1.012,5.718,5.718,0,0,1-1.7.107l-.108-.018a.908.908,0,0,0-.545-.719l-1.735-.736a1.883,1.883,0,0,0-2.463.995l-2.521,5.939a1.884,1.884,0,0,0,1,2.463l1.741.739a.908.908,0,0,0,.263.067,1.043,1.043,0,0,1,.782.443,2.478,2.478,0,0,0,1.086.9l2.23.946.23.1,4.57,1.94a2.674,2.674,0,0,0,3.668-1.078l3.306-5.259A2.588,2.588,0,0,0,739.011,162.627Zm-15.89,3.615a.026.026,0,0,1-.034.013l-1.739-.738a1,1,0,0,1-.528-1.307l2.521-5.939a1,1,0,0,1,1.307-.528l.848.361a1,1,0,0,1,.527,1.306l-2.9,6.833Zm15.006-1.587-3.308,5.271a.034.034,0,0,1-.011.016,1.809,1.809,0,0,1-2.562.713l-4.57-1.94-.23-.1-2.23-.946a1.616,1.616,0,0,1-.927-1.867.724.724,0,0,0,.013-.078l2.751-6.482.193.035c.006,0,.012,0,.018,0a6.362,6.362,0,0,0,1.989-.114,3.972,3.972,0,0,0,2.979-2.325l.666-1.567a.965.965,0,0,1,1.7-.168l.009.015a2.122,2.122,0,0,1-.1,1.913l-.881,2.076a1.416,1.416,0,0,0,.748,1.851l.608.258,1.925.817.535.227a1.571,1.571,0,0,1,.786.753A1.683,1.683,0,0,1,738.127,164.655Z" transform="translate(-719.861 -153.573)" fill="#fff" stroke="#000" stroke-miterlimit="10" stroke-width="1"/>
    </g>
    <g id="Group_19" data-name="Group 19" transform="translate(744.761 152.48)">
      <path id="Path_193" data-name="Path 193" d="M749.417,162.106l1.833,2.915a1.482,1.482,0,0,0,2.032.6l2.533-1.075.128-.054,1.235-.525a1.365,1.365,0,0,0,.6-.5.578.578,0,0,1,.434-.246.51.51,0,0,0,.145-.037l.965-.41a1.045,1.045,0,0,0,.551-1.365l-1.4-3.292a1.045,1.045,0,0,0-1.365-.551l-.961.409a.5.5,0,0,0-.3.4l-.06.01a3.157,3.157,0,0,1-.943-.059,1.86,1.86,0,0,1-1.02-.561,1.612,1.612,0,0,1-.273-.437c-.272-.99-.833-1.637-1.282-1.62a1.152,1.152,0,0,0-.486.149,1.124,1.124,0,0,0-.417.458,1.9,1.9,0,0,0,.025,1.5l.395.927a.538.538,0,0,1-.286.706l-.112.047-1.067.453-.3.126a1.363,1.363,0,0,0-.683.648A1.435,1.435,0,0,0,749.417,162.106Zm8.732.619-1.607-3.786a.553.553,0,0,1,.293-.724l.47-.2a.552.552,0,0,1,.724.293l1.4,3.291a.552.552,0,0,1-.293.724l-.963.409a.015.015,0,0,1-.02-.007Zm-8.367-1.787a.868.868,0,0,1,.436-.418l.3-.125,1.067-.453.337-.144a.784.784,0,0,0,.415-1.026l-.488-1.151a1.173,1.173,0,0,1-.056-1.06l0-.008a.535.535,0,0,1,.941.093l.369.869a2.2,2.2,0,0,0,1.651,1.288,3.517,3.517,0,0,0,1.1.063l.01,0,.107-.02,1.525,3.592a.366.366,0,0,0,.007.043.9.9,0,0,1-.514,1.035l-1.235.525-.128.054-2.533,1.074a1,1,0,0,1-1.42-.395l-.005-.009-1.833-2.921A.931.931,0,0,1,749.782,160.937Z" transform="translate(-749.2 -155.703)" fill="#fff" stroke="#000" stroke-miterlimit="10" stroke-width="1"/>
    </g>
    <path id="Path_194" data-name="Path 194" d="M748.528,162.925l-7.164,1.188" transform="translate(-3.551 -4.042)" fill="none" stroke="#000" stroke-linecap="round" stroke-linejoin="round" stroke-width="2"/>
  </g>
</svg>
