<svg xmlns="http://www.w3.org/2000/svg" width="263.48" height="161.346" viewBox="0 0 263.48 161.346">
  <g id="Newcomer" transform="translate(-36.712 -63.605)">
    <ellipse id="Ellipse_102" data-name="Ellipse 102" cx="130.521" cy="7.278" rx="130.521" ry="7.278" transform="translate(38.649 209.894)" fill="#d45c4f" stroke="rgba(0,0,0,0)" stroke-width="1" opacity="0.1"/>
    <path id="Path_200" data-name="Path 200" d="M153.18,131.815l-1.911-.006-28.4-.059-1.512,0,.8-2.485h30.821Z" transform="translate(91.172 70.227)" fill="#d45c4f" stroke="rgba(0,0,0,0)" stroke-width="2"/>
    <path id="Path_201" data-name="Path 201" d="M128.992,108.254l-.08.771-6.3,62.146-2.887-.134,6.639-62.012.074-.705Z" transform="translate(89.376 47.052)" fill="#d45c4f" stroke="rgba(0,0,0,0)" stroke-width="2"/>
    <path id="Path_202" data-name="Path 202" d="M142.784,171.036l-2.89.134-6.3-62.146-.077-.771,2.55.065.074.705Z" transform="translate(104.592 47.052)" fill="#d45c4f" stroke="rgba(0,0,0,0)" stroke-width="2"/>
    <rect id="Rectangle_40" data-name="Rectangle 40" width="91.657" height="61.038" rx="0.584" transform="translate(182.043 94.029)" fill="rgba(0,0,0,0)" stroke="#d7615e" stroke-miterlimit="10" stroke-width="4"/>
    <path id="Path_203" data-name="Path 203" d="M130.525,70.067V84.806h-2.484V70.067a1.242,1.242,0,0,1,2.484,0Z" transform="translate(98.55 3.551)" fill="#d45c4f" stroke="rgba(0,0,0,0)" stroke-width="1"/>
    <path id="Path_204" data-name="Path 204" d="M132.011,76.575v4.869h-4.432V76.575a.6.6,0,0,1,.6-.6H131.4a.6.6,0,0,1,.614.576Z" transform="translate(98.041 11.446)" fill="#d45c4f" stroke="rgba(0,0,0,0)" stroke-width="1"/>
    <circle id="Ellipse_103" data-name="Ellipse 103" cx="0.94" cy="0.94" r="0.94" transform="translate(226.893 89.363)" fill="#fff" stroke="rgba(0,0,0,0)" stroke-width="1"/>
    <rect id="Rectangle_41" data-name="Rectangle 41" width="8.059" height="1.342" transform="translate(223.804 93.092)" stroke="rgba(0,0,0,0)" stroke-width="1" opacity="0.1"/>
    <rect id="Rectangle_42" data-name="Rectangle 42" width="8.059" height="1.342" transform="translate(223.804 92.687)" fill="#be2d2a" stroke="rgba(0,0,0,0)" stroke-width="1"/>
    <path id="Path_205" data-name="Path 205" d="M121.966,107.385h33.206a1.785,1.785,0,0,1,1.786,1.786H120.187A1.787,1.787,0,0,1,121.966,107.385Z" transform="translate(89.886 46.093)" stroke="rgba(0,0,0,0)" stroke-width="1" opacity="0.1"/>
    <path id="Path_206" data-name="Path 206" d="M121.966,107.583h33.206a1.785,1.785,0,0,1,1.786,1.786H120.187a1.785,1.785,0,0,1,1.786-1.786Z" transform="translate(89.886 46.311)" fill="#d45c4f" stroke="rgba(0,0,0,0)" stroke-width="1"/>
    <path id="Path_207" data-name="Path 207" d="M108.488,87.746,83.63,93.908" transform="translate(49.555 24.427)" fill="rgba(0,0,0,0)" stroke="#000" stroke-linecap="round" stroke-linejoin="round" stroke-width="4"/>
    <path id="Path_208" data-name="Path 208" d="M82.839,90.135a1.553,1.553,0,0,1,.745,2.984" transform="translate(48.682 27.054)" fill="rgba(0,0,0,0)" stroke="#000" stroke-linecap="round" stroke-linejoin="round" stroke-width="4"/>
    <path id="Path_209" data-name="Path 209" d="M160.722,126.611a61.006,61.006,0,0,0-61-61.006h0a61.006,61.006,0,0,0-61,61.006A125.74,125.74,0,0,0,102.244,142.5,125.512,125.512,0,0,0,160.722,126.611Z" transform="translate(0)" fill="rgba(0,0,0,0)" stroke="#000" stroke-linecap="round" stroke-linejoin="round" stroke-width="4"/>
    <circle id="Ellipse_104" data-name="Ellipse 104" cx="6.278" cy="6.278" r="6.278" transform="translate(137.202 91.667)" stroke-width="4" stroke="#000" stroke-linecap="round" stroke-linejoin="round" fill="rgba(0,0,0,0)"/>
    <path id="Path_210" data-name="Path 210" d="M102.244,110.448A125.688,125.688,0,0,1,38.912,94.665a35.6,35.6,0,0,0-.2,3.567v12.045a61.005,61.005,0,1,0,122.01,0V98.127c0-1.174-.082-2.324-.194-3.466A125.45,125.45,0,0,1,102.244,110.448Z" transform="translate(0 32.055)" fill="rgba(0,0,0,0)" stroke="#000" stroke-linecap="round" stroke-linejoin="round" stroke-width="4"/>
    <line id="Line_6" data-name="Line 6" y1="9.371" x2="15.16" transform="translate(115.348 153.567)" fill="none" stroke="#000" stroke-linecap="round" stroke-linejoin="round" stroke-width="4"/>
    <line id="Line_7" data-name="Line 7" x1="26.515" y1="5.215" transform="translate(115.514 163.031)" fill="none" stroke="#000" stroke-linecap="round" stroke-linejoin="round" stroke-width="4"/>
    <path id="Path_211" data-name="Path 211" d="M73.917,130.3q.158,7.856.313,15.709" transform="translate(38.839 71.37)" fill="rgba(0,0,0,0)" stroke="#000" stroke-linecap="round" stroke-linejoin="round" stroke-width="4"/>
    <path id="Path_212" data-name="Path 212" d="M82.549,121.783q.23,17.238.463,34.476" transform="translate(48.362 61.977)" fill="rgba(0,0,0,0)" stroke="#000" stroke-linecap="round" stroke-linejoin="round" stroke-width="4"/>
    <path id="Path_213" data-name="Path 213" d="M96.723,104.543l19.575,3.88q-2.234-3.7-4.8-7.445c-.259-.374-.517-.749-.778-1.119" transform="translate(63.999 37.79)" fill="rgba(0,0,0,0)" stroke="#000" stroke-linecap="round" stroke-linejoin="round" stroke-width="4"/>
    <path id="Path_214" data-name="Path 214" d="M108.5,97.114l2.624-1.707-2.021-.417-1.33,1.428Z" transform="translate(76.186 32.419)" fill="#33313f"/>
    <path id="Path_215" data-name="Path 215" d="M99.174,108.447l2.918-2.643.626-.457,8.651-6.379,2.944-2.167,1.2.056,1.969-1.37.855,1.024-1.961,1.618-.137,1-3.023,2.311-8.537,6.535-.549.415-3.355,2.167Z" transform="translate(66.703 32.966)" fill="#65617d" stroke="#000" stroke-miterlimit="10" stroke-width="0.5"/>
    <path id="Path_216" data-name="Path 216" d="M100.859,103.521l8.651-6.379,1.849,2.468-8.537,6.535Z" transform="translate(68.562 34.792)" fill="#33313f" stroke="#000" stroke-miterlimit="10" stroke-width="0.5"/>
    <path id="Path_217" data-name="Path 217" d="M104.389,101.03c-1.056-1.474-2.835-3.908-3-3.8-.149.1,1.043,2.194,2.211,4.175" transform="translate(69.132 34.888)" fill="rgba(0,0,0,0)" stroke="#000" stroke-linecap="round" stroke-linejoin="round" stroke-width="4"/>
    <path id="Path_218" data-name="Path 218" d="M166.619,100.308a.909.909,0,0,0,1.134-.608l.8-2.644a2.4,2.4,0,0,0-1.6-2.989l-9.256-2.8a1.861,1.861,0,0,1-1.016-.806,8.845,8.845,0,0,0-10.615-3.207,1.842,1.842,0,0,1-1.279.105l-9.265-2.8a2.4,2.4,0,0,0-2.989,1.6l-.8,2.644a.911.911,0,0,0,.608,1.136l1.161.351a.3.3,0,0,1,.2.379l-3.519,11.62a.3.3,0,0,1-.376.2l-1.163-.351a.91.91,0,0,0-1.136.608l-.7,2.324a.91.91,0,0,0,.608,1.134h0a.3.3,0,0,1,.2.379l-2.734,9.035a2.4,2.4,0,0,0,1.6,2.989l29.107,8.81a2.4,2.4,0,0,0,2.989-1.6l2.734-9.035a.3.3,0,0,1,.379-.2h0a.91.91,0,0,0,1.134-.608l.7-2.324a.91.91,0,0,0-.608-1.134l-1.163-.353a.3.3,0,0,1-.2-.379l3.517-11.618a.3.3,0,0,1,.379-.2Zm.6-3.022-.019.059a1.789,1.789,0,0,1-2.232,1.195l-6.453-1.954a1.785,1.785,0,0,1-1.188-2.242l.01-.036a1.787,1.787,0,0,1,2.232-1.207l6.455,1.954A1.79,1.79,0,0,1,167.217,97.285Zm-11.465,12.733,1.582-5.229a.908.908,0,0,0-.606-1.134l-1.744-.528a.911.911,0,0,0-1.136.608l-1.582,5.229a.3.3,0,0,1-.379.2h0a.305.305,0,0,1-.2-.379l1.584-5.229a.912.912,0,0,0-.608-1.136l-1.744-.526a.908.908,0,0,0-1.134.608l-1.153,3.8A1.79,1.79,0,0,1,146.4,107.5l-1.222-.37a1.789,1.789,0,0,1-1.195-2.232l.9-2.963a2.4,2.4,0,0,0-1.6-2.989l-2.963-.9a2.4,2.4,0,0,0-2.989,1.6L136,104.041a.3.3,0,0,1-.379.2l-1.744-.528a.3.3,0,0,1-.2-.379l3.085-10.2a1.791,1.791,0,0,1,2.231-1.195l4.028,1.22a1.866,1.866,0,0,1,1.018.806,8.845,8.845,0,0,0,10.615,3.207,1.842,1.842,0,0,1,1.279-.105l4.034,1.222a1.789,1.789,0,0,1,1.195,2.232l-3.085,10.2a.3.3,0,0,1-.379.2l-1.744-.528A.3.3,0,0,1,155.752,110.018Zm-2.324-.7,1.407-4.648a.3.3,0,0,1,.379-.2l.581.177a.3.3,0,0,1,.2.376l-1.4,4.648a.306.306,0,0,1-.379.2l-.583-.177A.3.3,0,0,1,153.428,109.316Zm-4.066-1.23,1.4-4.648a.3.3,0,0,1,.379-.2l.583.175a.3.3,0,0,1,.2.379l-1.407,4.648a.3.3,0,0,1-.379.2l-.58-.175A.3.3,0,0,1,149.362,108.085Zm-12.2-3.693.177-.58a.3.3,0,0,1,.379-.2l4.646,1.407a.3.3,0,0,1,.2.379l-.177.58a.3.3,0,0,1-.379.2l-4.648-1.407A.3.3,0,0,1,137.162,104.392Zm1.258-3.106,4.648,1.4a.305.305,0,0,1,.2.379l-.177.583a.3.3,0,0,1-.376.2l-4.648-1.407a.305.305,0,0,1-.2-.379l.177-.58A.3.3,0,0,1,138.419,101.286Zm5,.244-4.648-1.407a.3.3,0,0,1-.2-.379l.177-.581a.3.3,0,0,1,.376-.2l4.648,1.407a.3.3,0,0,1,.2.376l-.175.583A.3.3,0,0,1,143.419,101.53Zm8.173-13.381a6.8,6.8,0,0,1,4.453,3.653l.021.057a3.145,3.145,0,0,1-1.157,3.815c-.017.011-.032.025-.048.038a7.518,7.518,0,0,1-10.184-3.083.453.453,0,0,0-.021-.057,3.14,3.14,0,0,1,1.155-3.815l.05-.038A6.8,6.8,0,0,1,151.592,88.149Zm-15.839-2.257,6.455,1.954a1.782,1.782,0,0,1,1.186,2.242l-.011.036a1.784,1.784,0,0,1-2.229,1.207L134.7,89.377a1.79,1.79,0,0,1-1.195-2.232l.017-.059A1.79,1.79,0,0,1,135.752,85.892Zm-.5,4.919.581.177a.3.3,0,0,1,.2.379l-3.517,11.618a.3.3,0,0,1-.379.2l-.581-.175a.3.3,0,0,1-.2-.379l3.517-11.618A.3.3,0,0,1,135.248,90.812Zm17.213,34.381-22.136-6.7a1.79,1.79,0,0,1-1.195-2.232c-.2-2.213.6-4.061,1.941-4.606a2.557,2.557,0,0,1,1.363-.135l22.136,6.7a2.522,2.522,0,0,1,1.058.869c.816,1.2.458,3.18-.936,4.907A1.79,1.79,0,0,1,152.46,125.193Zm4.326,1.31-1.161-.351a.3.3,0,0,1-.2-.379l1.68-5.548a2.4,2.4,0,0,0-1.6-2.989l-23.3-7.052a2.4,2.4,0,0,0-2.989,1.6l-1.678,5.548a.3.3,0,0,1-.379.2L126,117.184a.3.3,0,0,1-.2-.379l2.56-8.453a1.789,1.789,0,0,1,2.232-1.195l27.946,8.459a1.791,1.791,0,0,1,1.195,2.232l-2.56,8.453A.3.3,0,0,1,156.787,126.5Zm4.68-11.267-33.115-10.024a.3.3,0,0,1-.2-.376l.351-1.163a.3.3,0,0,1,.379-.2l33.113,10.022a.3.3,0,0,1,.2.379l-.351,1.163A.305.305,0,0,1,161.467,115.236Zm-1.445-3.607-.581-.177a.3.3,0,0,1-.2-.379l3.517-11.618a.3.3,0,0,1,.379-.2l.583.177a.3.3,0,0,1,.2.379L160.4,111.425A.3.3,0,0,1,160.022,111.629Z" transform="translate(94.957 20.791)" stroke="rgba(0,0,0,0)" stroke-width="1"/>
    <path id="Path_219" data-name="Path 219" d="M122.773,90.073a.948.948,0,0,1,1.169.65,1.127,1.127,0,0,1,.034.187,60.494,60.494,0,0,0,2.387,11.686,15.256,15.256,0,0,0,1.988,4.7.776.776,0,0,1-.486,1.232h0l-12.924,2.3a.523.523,0,0,1-.606-.421.553.553,0,0,1-.006-.118c.261-4.623-.8-9.441-2.009-13.968-.6-2.246-.932-3.449.742-3.9,1.727-.456,3.466-.831,5.18-1.279C118.609,91.049,121.246,90.511,122.773,90.073Z" transform="translate(80.666 26.954)" fill="rgba(0,0,0,0)" stroke="#000" stroke-linecap="round" stroke-miterlimit="10" stroke-width="1"/>
    <line id="Line_8" data-name="Line 8" x2="8.133" y2="7.686" transform="translate(196.136 120.943)" fill="none" stroke="#000" stroke-linecap="round" stroke-miterlimit="10" stroke-width="1"/>
    <path id="Path_220" data-name="Path 220" d="M116.963,97.654a39.252,39.252,0,0,1,4.56-.726.438.438,0,0,1,.45.313l.347,1.169a.187.187,0,0,1-.006.164.211.211,0,0,1-.105.048c-.635.126-1.287.162-1.912.328-.389.1-.763.24-1.142.351a14.106,14.106,0,0,1-1.941.368,9.807,9.807,0,0,1-2.762.132c-.019,0-.118-1-.135-1.092-.08-.463-.1-.5.37-.593Z" transform="translate(83.361 34.556)" fill="rgba(0,0,0,0)" stroke="#000" stroke-linecap="round" stroke-miterlimit="10" stroke-width="1"/>
    <path id="Path_221" data-name="Path 221" d="M120.612,95.265a39.226,39.226,0,0,1,5.069-.871" transform="translate(90.355 31.755)" fill="rgba(0,0,0,0)" stroke="#000" stroke-miterlimit="10" stroke-width="1"/>
    <path id="Path_222" data-name="Path 222" d="M122.835,93.29s2.2,1.55,2.271,1.992-2.084,2.4-2.084,2.4" transform="translate(92.807 30.543)" fill="rgba(0,0,0,0)" stroke="#000" stroke-miterlimit="10" stroke-width="1"/>
    <path id="Path_223" data-name="Path 223" d="M114.245,101.109a17.49,17.49,0,0,0,4.377-9.353" transform="translate(83.33 28.851)" fill="rgba(0,0,0,0)" stroke="#000" stroke-linecap="round" stroke-miterlimit="10" stroke-width="1"/>
  </g>
</svg>
