<?xml version="1.0" encoding="utf-8"?>
<!-- Generator: Adobe Illustrator 23.0.1, SVG Export Plug-In . SVG Version: 6.00 Build 0)  -->
<svg version="1.1" id="Layer_1" xmlns="http://www.w3.org/2000/svg" xmlns:xlink="http://www.w3.org/1999/xlink" x="0px" y="0px"
	 viewBox="0 0 498.5 320.5" style="enable-background:new 0 0 498.5 320.5;" xml:space="preserve">
<style type="text/css">
	.st0{fill:#E6E7E8;}
	.st1{fill:#C03A2B;}
	.st2{fill:none;stroke:#FDC200;stroke-width:8;stroke-linecap:round;stroke-linejoin:round;}
	.st3{fill:#FDC200;}
	.st4{fill:#C66355;stroke:#C66355;stroke-width:8;stroke-linecap:round;stroke-linejoin:round;}
	.st5{fill:#AF3A32;stroke:#AF3A32;stroke-width:8;stroke-linecap:round;stroke-linejoin:round;}
	.st6{fill:#AF3A32;stroke:#AF3A32;stroke-width:8;stroke-miterlimit:10;}
	.st7{fill:none;stroke:#FFFFFF;stroke-width:6;stroke-linecap:round;stroke-linejoin:round;}
	.st8{fill:#D69F05;}
</style>
<path class="st0" d="M264,150.9l8.4,8.4c0.5,0.5,0.5,1.4,0,1.9l-25.3,25.3c-0.5,0.5-1.4,0.5-1.9,0l-8.4-8.4L264,150.9z"/>
<path class="st1" d="M255.5,142.4l8.4,8.4L236.8,178l-8.4-8.4c-0.5-0.5-0.5-1.4,0-1.9l25.3-25.3C254.2,141.9,255,141.9,255.5,142.4z
	"/>
<title>Promise</title>
<g>
	<g id="Olav">
		<path class="st2" d="M275.9,186.8c-5.2,2.5-11.1,2.2-15.2-1c-2.2-1.7-3.8-4.1-4.6-6.8"/>
		<path class="st3" d="M356.4,0.3c-1.1,0.6-1.6,2.1-0.9,3.2c0.2,0.4,0.6,0.8,1.1,1c-4,8.4-8,16.9-12.1,25.4c-3,6.2-6,12.3-9,18.4
			l-28.8-20.8c0.6-0.7,0.6-1.8,0.2-2.6c-0.6-1.1-2.1-1.6-3.2-0.9s-1.6,2.1-0.9,3.2c0.4,0.8,1.3,1.3,2.2,1.2
			c0.9,12.1,1.8,24.1,2.6,36.2c-6.9-0.8-13.8-1.6-20.8-2.3c-9.4-1-18.7-1.9-27.9-2.8c0-0.5,0-0.9-0.2-1.3c-0.6-1.2-2.1-1.6-3.3-0.9
			c-1.2,0.6-1.6,2.1-0.9,3.3c0.6,1.2,2.1,1.6,3.3,0.9l0,0c0.4-0.2,0.7-0.6,0.9-1c5.4,3.1,10.8,6.2,16.3,9.4
			c8.1,4.7,16.1,9.5,24.1,14.2l19.6-17.5l12.2-6.9l26.6-8.3c-0.2-9-0.4-18.3-0.3-27.8c0-6.4,0.2-12.7,0.4-18.9
			c0.4,0,0.9-0.1,1.2-0.3c1.1-0.7,1.5-2.1,0.9-3.3S357.6-0.3,356.4,0.3L356.4,0.3z"/>
		<path class="st2" d="M336.2,294.3c0,13.4,0,20.1,0,20.1s0-10.5,0.1-31.7"/>
		<path class="st4" d="M389.6,185.5c-39.7,0.7-78.9-9-113.6-28.3c-0.2,2.1-0.4,4.2-0.4,6.4v21.6c-0.5,60.4,48,109.8,108.4,110.4
			s109.9-47.9,110.5-108.4c0-0.7,0-1.4,0-2.1v-21.8c0-2.1-0.1-4.2-0.4-6.2C462.1,175,426.2,184.7,389.6,185.5z"/>
		<path class="st2" d="M223.4,182.7c7,5.1,14.7,9.3,19.5,6.5c6.1-3.5,3.4-16.4,6.4-17.1c5-1.2,10,35.5,29.3,44.4
			c9.5,4.4,26,3.6,56.4-20.1"/>
		<path class="st3" d="M283.4,116.7c2.6-6.6,5.8-12.9,9.6-18.8c-4.2-4.5-11.3-4.8-15.9-0.6s-4.8,11.3-0.6,15.9
			C278.3,115.1,280.7,116.3,283.4,116.7z"/>
		<path class="st5" d="M494.5,157c0-60.4-48.9-109.4-109.4-109.4l0,0l0,0c-60.4,0-109.4,49-109.4,109.4c0,0,0,0,0,0.1
			c34.8,19.4,74.1,29.2,114,28.5C426.4,184.7,462.4,174.9,494.5,157z"/>
		<path class="st2" d="M174.1,294.3c0,13.4,0,20.1,0,20.1s0.1-10.5,0.1-31.7"/>
		<path d="M134.2,12.7c-2.7,3.6-4.5,7.8-5.4,12.2c-0.8,4.3-0.7,8.8,0.4,13.1c12.3,1,24.4,4,35.7,9l0,0c11.2,4.9,21.4,11.7,30.3,20
			c4.1-1.8,7.6-4.6,10.4-8c2.7-3.7,4.4-8,4.8-12.5c1,0,1.9-0.5,2.3-1.5c0.5-1.2,0-2.7-1.2-3.2s-2.7,0-3.2,1.2c-0.3,0.6-0.3,1.3,0,2
			c-2.1,1.5-4.4,2.6-6.9,3.1c-10.3,2.1-19.3-6.3-24.3-5.9l-1.6-14.8c1.6-0.6,2.4-2.3,1.8-3.8s-2.3-2.4-3.8-1.8
			c-1.6,0.6-2.4,2.3-1.8,3.8c0,0.1,0,0.1,0.1,0.2l-12,8.7c-3-4-15.3-5-20.7-14.1c-1.3-2.2-2.1-4.7-2.3-7.2c0.7-0.2,1.2-0.7,1.5-1.3
			c0.5-1.2,0-2.7-1.3-3.2c-1.2-0.5-2.7,0-3.2,1.3C133.3,11,133.5,12,134.2,12.7L134.2,12.7z"/>
		<path class="st3" d="M218.2,84.4c-2.9,0-5.6,1.1-7.7,3.1c3.7,6,6.7,12.5,8.8,19.3c6.2-0.6,10.7-6.2,10-12.3
			C228.7,88.8,223.9,84.5,218.2,84.4L218.2,84.4z"/>
		<path class="st6" d="M222.8,151.7v-21.6c0-51-49-92.4-109.4-92.4l0,0C53,37.7,4,79.1,4,130.1v92.4c0,32.6,31.4,59.1,70,59.1h79
			c38.7,0,70-26.5,70-59.1v-66.7C223.1,154.4,222.9,153.1,222.8,151.7z"/>
		<line class="st7" x1="350.7" y1="132.4" x2="350.7" y2="132.4"/>
		<path class="st2" d="M350.7,132.4c-13.3,4.6-27.4,6.6-41.4,6c-10.6-0.5-21.1-2.5-31.2-6"/>
		<path class="st2" d="M352.1,129.3c-1.4,0.7-1.9,2.4-1.2,3.8c0.6,1.1,1.8,1.7,3,1.4"/>
		<circle class="st3" cx="347.1" cy="105.4" r="11.3"/>
		<path class="st2" d="M372.3,313.4v-70.2"/>
		<path class="st2" d="M136.3,314.2v-71"/>
		<path class="st8" d="M174.7,133.5l-8.9,8.7c-1.8,1.8-1.8,4.7,0,6.5c0.9,0.9,2.1,1.4,3.3,1.4h17.8c2.6,0,4.6-2.1,4.6-4.6
			c0-1.2-0.5-2.4-1.4-3.3l-8.9-8.7C179.4,131.7,176.5,131.7,174.7,133.5z"/>
		<circle class="st3" cx="132.2" cy="95.7" r="11.3"/>
		<path class="st3" d="M172.8,112.4l-13.4,13.2c-2.9,2.8-2.9,7.5-0.1,10.4c1.4,1.4,3.3,2.2,5.2,2.2h26.8c4.1,0,7.3-3.3,7.3-7.4
			c0-2-0.8-3.9-2.2-5.2L183,112.4C180.3,109.6,175.7,109.6,172.8,112.4z"/>
		<path class="st2" d="M75,171.6c-5.5,7.5-9.1,16.2-10.5,25.4c-3.8,27,14.1,46.9,17,50"/>
	</g>
</g>
</svg>
